<svg xmlns="http://www.w3.org/2000/svg" xmlns:xlink="http://www.w3.org/1999/xlink" viewBox="0 0 712.274 635">
  <defs>
    <style>
      .cls-1 {
        fill: #f8f8f8;
      }

      .cls-10, .cls-16, .cls-17, .cls-19, .cls-2, .cls-20, .cls-21, .cls-38, .cls-39, .cls-40, .cls-42, .cls-47, .cls-51, .cls-52, .cls-9 {
        fill: none;
      }

      .cls-2 {
        stroke: #707070;
      }

      .cls-3 {
        clip-path: url(#clip-path);
      }

      .cls-4 {
        fill: #3a3a3a;
      }

      .cls-5, .cls-6 {
        opacity: 0.5;
      }

      .cls-5 {
        fill: url(#linear-gradient);
      }

      .cls-7 {
        fill: url(#linear-gradient-2);
      }

      .cls-8 {
        fill: url(#linear-gradient-3);
      }

      .cls-10, .cls-21, .cls-9 {
        stroke: #3a3a3a;
      }

      .cls-10, .cls-16, .cls-17, .cls-19, .cls-20, .cls-21, .cls-38, .cls-39, .cls-42, .cls-47, .cls-51, .cls-9 {
        stroke-miterlimit: 10;
      }

      .cls-9 {
        stroke-width: 0.756px;
      }

      .cls-10, .cls-19, .cls-40 {
        stroke-width: 0.864px;
      }

      .cls-11 {
        fill: #636363;
      }

      .cls-12 {
        fill: #fff;
      }

      .cls-13 {
        fill: #ffb81c;
      }

      .cls-14 {
        fill: #6c9baa;
      }

      .cls-14, .cls-41 {
        opacity: 0.4;
      }

      .cls-15 {
        fill: #ffd578;
      }

      .cls-16, .cls-19, .cls-39, .cls-40 {
        stroke: #ffd578;
      }

      .cls-16, .cls-17, .cls-21, .cls-38, .cls-39, .cls-42 {
        stroke-linecap: round;
      }

      .cls-16 {
        stroke-width: 2.804px;
      }

      .cls-17, .cls-42, .cls-47, .cls-51, .cls-52 {
        stroke: #fff;
      }

      .cls-17 {
        stroke-width: 1.872px;
      }

      .cls-18 {
        fill: #2e2e2e;
      }

      .cls-20, .cls-38 {
        stroke: #ffb81c;
      }

      .cls-20, .cls-21 {
        stroke-width: 1.728px;
      }

      .cls-22 {
        fill: #fa968c;
      }

      .cls-23 {
        fill: #fa870a;
      }

      .cls-24 {
        fill: #fab9af;
      }

      .cls-25 {
        fill: #46738c;
      }

      .cls-26 {
        fill: #1c9585;
      }

      .cls-27 {
        fill: #177d74;
      }

      .cls-28 {
        fill: #39ae96;
      }

      .cls-29 {
        fill: #ffa50a;
      }

      .cls-30 {
        fill: #3c5a73;
      }

      .cls-31 {
        fill: #ffa0be;
      }

      .cls-32 {
        fill: #f57a2f;
      }

      .cls-33 {
        fill: #0091c8;
      }

      .cls-34 {
        fill: #0073aa;
      }

      .cls-35 {
        fill: #00558c;
      }

      .cls-36 {
        fill: #ff8c46;
      }

      .cls-37 {
        fill: #ff82aa;
      }

      .cls-38, .cls-39, .cls-42, .cls-47 {
        stroke-width: 1.296px;
      }

      .cls-41 {
        fill: #a28f65;
      }

      .cls-43 {
        fill: #41b4e6;
      }

      .cls-44 {
        fill: #aac85a;
      }

      .cls-45 {
        fill: #82be50;
      }

      .cls-46 {
        fill: #a56941;
      }

      .cls-48 {
        fill: #fff0f2;
      }

      .cls-49 {
        fill: #965028;
      }

      .cls-50 {
        fill: #eb7731;
      }

      .cls-51, .cls-52 {
        stroke-width: 2px;
      }

      .cls-53 {
        clip-path: url(#clip-path-2);
      }

      .cls-54 {
        filter: url(#project-workers-shadow);
      }
    </style>
    <clipPath id="clip-path">
      <path id="background_wrapper" class="cls-1" d="M0,0H712.274V635H0Z"/>
    </clipPath>
    <linearGradient id="linear-gradient" x1="0.5" y1="1.006" x2="0.5" y2="-0.2" gradientUnits="objectBoundingBox">
      <stop offset="0" stop-color="#fff"/>
      <stop offset="1"/>
    </linearGradient>
    <linearGradient id="linear-gradient-2" x1="0.499" y1="-0.263" x2="0.499" y2="1.838" xlink:href="#linear-gradient"/>
    <linearGradient id="linear-gradient-3" x1="0.5" y1="-0.128" x2="0.5" y2="1.645" xlink:href="#linear-gradient"/>
    <clipPath id="clip-path-2">
      <rect id="Rectangle_56" data-name="Rectangle 56" class="cls-2" width="712" height="635" transform="translate(9524 -835)"/>
    </clipPath>
    <filter id="project-workers-shadow" x="-18.5" y="-3.5" width="732.67" height="656.001" filterUnits="userSpaceOnUse">
      <feOffset dx="-8" dy="7" input="SourceAlpha"/>
      <feGaussianBlur stdDeviation="3.5" result="blur"/>
      <feFlood flood-opacity="0.302"/>
      <feComposite operator="in" in2="blur"/>
      <feComposite in="SourceGraphic"/>
    </filter>
  </defs>
  <g id="project-workers" transform="translate(-9524 835)">
    <g id="project-workers-2" data-name="project-workers" class="cls-3" transform="translate(9524 -835)">
      <g id="background_helpers">
        <g id="background_bubble" transform="translate(-103.225 91.35)">
          <path id="Path_334" data-name="Path 334" class="cls-4" d="M738.4,438.886c-1.88-19.636-2.089-39.48,2.507-59.116,11.071-46.583,30.289-92.747,20.889-141.21-7.1-36.347-30.707-69.978-63.085-94.627C671.142,123.044,637.3,108.212,602,100.484S529.514,93.8,495.047,82.519C458.074,70.4,428.2,46.381,394.153,29.252,342.558,3.558,280.517-5.842,222.446,3.558,123.014,19.434,44.262,91.083,13.138,171.924-6.5,222.684-4.827,280.547,23.164,328.8c13.16,22.769,32.378,45.956,27.156,70.6C41.756,440.139,1.44,456.015,2.067,501.344c.418,43.031,32.8,75.2,76.036,87.734,40.734,11.7,84.392,12.116,127.005,12.324l271.348,1.88c56.609.418,113.636,5.849,170.245,3.342,29.453-1.462,60.787-8.982,78.752-29.036,8.982-10.027,14.2-22.351,16.711-34.885C749.267,508.237,741.538,473.561,738.4,438.886Z" transform="translate(0 0)"/>
          <path id="Path_335" data-name="Path 335" class="cls-5" d="M672.931,143.933c-27.573-20.889-61.414-35.72-96.716-43.449S503.73,93.8,469.263,82.519C432.289,70.4,402.418,46.381,368.369,29.252,316.773,3.558,254.733-5.842,196.661,3.558,124.8,15.047,63.6,55.781,23.7,107.795q5.013,4.387,10.653,8.773c27.573,20.889,61.414,35.72,96.716,43.449s72.485,6.684,106.952,17.965c36.765,12.116,66.636,36.138,100.894,53.267,51.6,25.693,113.636,35.094,171.708,25.9,71.858-11.489,133.063-52.223,172.961-104.236A135.115,135.115,0,0,0,672.931,143.933ZM378.4,97.559c-7.027,5.685-16.2,7.789-25.77,7.114-15.023-1.057-30.638-9.6-37.524-21.945-15.458-27.365,15.249-48.88,40.525-42.822C379.231,45.754,403.253,77.3,378.4,97.559Z" transform="translate(25.785 0)"/>
          <g id="Group_237" data-name="Group 237" class="cls-6" transform="translate(93.193 305.196)">
            <path id="Path_336" data-name="Path 336" class="cls-7" d="M111.418,146.1c-15.249,0-30.916,4.8-42.4,13.16-31.542,23.187-36.765,80,10.027,88.778a49.786,49.786,0,0,0,9.609.836c32.169,0,68.725-27.156,69.56-59.951.627-30.08-22.142-42.822-46.791-42.822" transform="translate(-44.624 -146.1)"/>
          </g>
          <g id="Group_238" data-name="Group 238" class="cls-6" transform="translate(102.961 436.169)">
            <path id="Path_337" data-name="Path 337" class="cls-8" d="M594.5,381.344c0-39.062-3.76-98.178-60.369-110.294-40.107-8.565-81.049,19.636-121.365,11.7-23.813-4.6-43.031-21.933-62.667-36.138-51.6-36.974-118.858-47.209-179.854-29.036C83.558,243.476,49.3,320.557,49.3,381.344Z" transform="translate(-49.3 -208.799)"/>
          </g>
        </g>
        <g id="background_helpers-2" data-name="background_helpers" transform="translate(-0.372 177)">
          <g id="Group_244" data-name="Group 244" transform="translate(0.372 23.418)">
            <g id="Group_239" data-name="Group 239" transform="translate(11.529 266.776)">
              <path id="Path_338" data-name="Path 338" class="cls-9" d="M105.559,244.231H103.6a26.012,26.012,0,0,0,.841-6.725c0-17.234-15.973-31.105-35.589-31.105-19.336,0-35.169,13.591-35.589,30.4C18.688,243.39,8.6,257.4,8.6,273.795c0,22.558,19.476,40.913,43.435,40.913A45.4,45.4,0,0,0,79.357,305.6a47.718,47.718,0,0,0,26.341,7.566c23.259,0,42.034-15.412,42.034-34.468C147.593,259.643,128.817,244.231,105.559,244.231Z" transform="translate(-8.6 -206.4)"/>
              <line id="Line_34" data-name="Line 34" class="cls-9" y2="90.653" transform="translate(70.617 54.224)"/>
              <path id="Path_339" data-name="Path 339" class="cls-9" d="M29.2,254.8l41.754,20.316,34.328-19.2" transform="translate(-0.337 -186.985)"/>
              <path id="Path_340" data-name="Path 340" class="cls-9" d="M45.1,229.1l19.476,36.009L80.409,249.7" transform="translate(6.041 -197.294)"/>
            </g>
            <path id="Path_341" data-name="Path 341" class="cls-4" d="M98.053,108.576h0a3.016,3.016,0,0,1-2.8-4.063,11.254,11.254,0,0,0,.42-5.745A11.893,11.893,0,0,0,83.9,89.1H20.711a11.7,11.7,0,1,0-.28,23.4h.7a8.494,8.494,0,0,1,8.407,8.687v.14h0a12.558,12.558,0,0,0,12.61,12.61H98.193a12.558,12.558,0,0,0,12.61-12.61h0A12.8,12.8,0,0,0,98.053,108.576Z" transform="translate(3.008 11.922)"/>
            <g id="Group_240" data-name="Group 240" transform="translate(422.587 218.017)">
              <path id="Path_342" data-name="Path 342" class="cls-10" d="M412.56,246.86c-1.681-1.681-5.324-1.681-9.388-.981a6.737,6.737,0,0,1-6.866-10.228c6.445-10.509,12.891-22.839,9.528-26.2-3.083-3.082-15.272.841-23.4,3.923a6.764,6.764,0,0,1-9.107-5.044c-2.522-12.61-7.846-35.729-14.011-35.729s-11.629,23.119-14.011,35.869a6.8,6.8,0,0,1-8.967,5.044c-8.687-3.223-22.138-7.426-25.5-4.063s3.083,15.693,9.528,26.2a6.757,6.757,0,0,1-6.866,10.228c-4.063-.7-7.706-.7-9.388.981-6.866,6.866,3.363,28.3,22.839,47.779,3.363,3.363,6.866,6.445,10.228,9.247a6.7,6.7,0,0,1,2.382,5.885c-.28,3.363.28,6.025,2.1,7.706,2.8,2.8,7.846,2.8,14.292.56a6.188,6.188,0,0,1,4.484,0c6.445,2.242,11.489,2.242,14.292-.56,1.681-1.681,2.382-4.344,2.1-7.706a6.845,6.845,0,0,1,2.382-5.885c3.363-2.8,6.866-5.885,10.228-9.247C409.2,275.163,419.425,253.726,412.56,246.86Z" transform="translate(-301.975 -172.6)"/>
              <line id="Line_35" data-name="Line 35" class="cls-10" y2="158.328" transform="translate(56.361 35.729)"/>
              <path id="Path_343" data-name="Path 343" class="cls-10" d="M369.554,213.6l-21.3,21.3L327.1,213.6" transform="translate(-291.897 -156.153)"/>
              <path id="Path_344" data-name="Path 344" class="cls-10" d="M369.554,242.1l-21.3,21.157L327.1,242.1" transform="translate(-291.897 -144.721)"/>
            </g>
            <path id="Path_345" data-name="Path 345" class="cls-4" d="M449.318,304.493A16.414,16.414,0,0,0,432.925,288.1H229.2v32.646H432.925a16.12,16.12,0,0,0,16.393-16.253Z" transform="translate(91.419 91.748)"/>
            <path id="Path_346" data-name="Path 346" class="cls-10" d="M384.491,40.259a8.65,8.65,0,0,0-8.687-8.267H351.844a9.119,9.119,0,0,1-9.107-8.127c-.42-3.5-1.821-6.866-5.6-6.866h-48.9a8.318,8.318,0,0,0-8.547,8.127,8.225,8.225,0,0,0,8.267,8.407h2.1a4.138,4.138,0,0,1,1.821.28,6.681,6.681,0,0,1,4.484,8.407,6.82,6.82,0,0,1-6.585,4.624h-9.247A7.96,7.96,0,0,0,272.4,54.55a7.865,7.865,0,0,0,7.846,7.986h83.648a8.108,8.108,0,0,0,8.127-9.388,3.982,3.982,0,0,1,3.783-4.764h.28A7.87,7.87,0,0,0,384.491,40.259Z" transform="translate(108.748 -17)"/>
            <path id="Path_347" data-name="Path 347" class="cls-10" d="M379.413,39.3h-8.827a7.236,7.236,0,0,0-7.286,7.286h0a7.236,7.236,0,0,0,7.286,7.286h8.827a7.236,7.236,0,0,0,7.286-7.286h0A7.325,7.325,0,0,0,379.413,39.3Z" transform="translate(145.211 -8.055)"/>
            <path id="Path_348" data-name="Path 348" class="cls-10" d="M267.435,32.893H257.346a7.833,7.833,0,0,1-7.846-7.846h0a7.833,7.833,0,0,1,7.846-7.846h10.088a7.833,7.833,0,0,1,7.846,7.846h0A7.924,7.924,0,0,1,267.435,32.893Z" transform="translate(99.562 -16.92)"/>
            <g id="Group_241" data-name="Group 241" transform="translate(394.459 68.095)">
              <path id="Path_349" data-name="Path 349" class="cls-10" d="M419.351,138.459v-8.267a8.79,8.79,0,0,0-8.827-8.827h-.28a9.081,9.081,0,0,1-8.407-5.885,33.033,33.033,0,0,0-1.681-3.923,8.981,8.981,0,0,1,1.681-10.088l.28-.28a8.712,8.712,0,0,0,0-12.47l-5.885-5.885a8.712,8.712,0,0,0-12.47,0l-.28.28A8.981,8.981,0,0,1,373.394,84.8c-1.261-.56-2.662-1.121-3.923-1.681a8.942,8.942,0,0,1-5.885-8.407v-.28a8.79,8.79,0,0,0-8.827-8.827h-8.267a8.79,8.79,0,0,0-8.827,8.827v.28a9.081,9.081,0,0,1-5.885,8.407,33.037,33.037,0,0,0-3.923,1.681,8.981,8.981,0,0,1-10.088-1.681l-.28-.28a8.712,8.712,0,0,0-12.47,0l-5.885,5.885a8.712,8.712,0,0,0,0,12.47l.28.28a8.981,8.981,0,0,1,1.681,10.088c-.56,1.261-1.121,2.662-1.681,3.923a8.942,8.942,0,0,1-8.407,5.885h-.28a8.79,8.79,0,0,0-8.827,8.827v8.267a8.79,8.79,0,0,0,8.827,8.827h.28a9.081,9.081,0,0,1,8.407,5.885,33.041,33.041,0,0,0,1.681,3.923,8.981,8.981,0,0,1-1.681,10.088l-.28.28a8.712,8.712,0,0,0,0,12.47l5.885,5.885a8.712,8.712,0,0,0,12.47,0l.28-.28a8.981,8.981,0,0,1,10.088-1.681c1.261.56,2.662,1.121,3.923,1.681a8.942,8.942,0,0,1,5.885,8.407v.28a8.79,8.79,0,0,0,8.827,8.827h8.267a8.79,8.79,0,0,0,8.827-8.827v-.28a9.081,9.081,0,0,1,5.885-8.407,33.031,33.031,0,0,0,3.923-1.681,8.981,8.981,0,0,1,10.088,1.681l.28.28a8.712,8.712,0,0,0,12.47,0l5.885-5.885a8.712,8.712,0,0,0,0-12.47l-.28-.28a8.981,8.981,0,0,1-1.681-10.088c.56-1.261,1.121-2.662,1.681-3.923a8.942,8.942,0,0,1,8.407-5.885h.28A8.79,8.79,0,0,0,419.351,138.459Z" transform="translate(-281.9 -65.6)"/>
              <circle id="Ellipse_13" data-name="Ellipse 13" class="cls-10" cx="35.729" cy="35.729" r="35.729" transform="translate(18.29 68.758) rotate(-45)"/>
            </g>
            <g id="Group_242" data-name="Group 242" transform="translate(34.927 185.23)">
              <path id="Path_350" data-name="Path 350" class="cls-9" d="M90.313,183.668v-3.923a4.215,4.215,0,0,0-4.2-4.2h-.14a4.081,4.081,0,0,1-3.923-2.8c-.28-.7-.56-1.261-.841-1.821a4.266,4.266,0,0,1,.841-4.764l.14-.14a4.063,4.063,0,0,0,0-5.885l-2.8-2.8a4.063,4.063,0,0,0-5.885,0l-.14.14a4.31,4.31,0,0,1-4.764.841c-.56-.28-1.261-.56-1.821-.841a4.081,4.081,0,0,1-2.8-3.923v-.14a4.215,4.215,0,0,0-4.2-4.2H55.845a4.215,4.215,0,0,0-4.2,4.2v.14a4.081,4.081,0,0,1-2.8,3.923c-.7.28-1.261.56-1.821.841a4.266,4.266,0,0,1-4.764-.841l-.14-.14a4.063,4.063,0,0,0-5.885,0l-2.8,2.8a4.063,4.063,0,0,0,0,5.885l.14.14a4.31,4.31,0,0,1,.841,4.764c-.28.56-.56,1.261-.841,1.821a4.081,4.081,0,0,1-3.923,2.8H29.5a4.215,4.215,0,0,0-4.2,4.2v3.923a4.215,4.215,0,0,0,4.2,4.2h.14a4.081,4.081,0,0,1,3.923,2.8c.28.7.56,1.261.841,1.821a4.266,4.266,0,0,1-.841,4.764l-.14.14a4.063,4.063,0,0,0,0,5.885l2.8,2.8a4.063,4.063,0,0,0,5.885,0l.14-.14a4.31,4.31,0,0,1,4.764-.841c.56.28,1.261.56,1.821.841a4.081,4.081,0,0,1,2.8,3.923v.14a4.215,4.215,0,0,0,4.2,4.2h3.923a4.215,4.215,0,0,0,4.2-4.2v-.14a4.081,4.081,0,0,1,2.8-3.923c.7-.28,1.261-.56,1.821-.841a4.266,4.266,0,0,1,4.764.841l.14.14a4.063,4.063,0,0,0,5.885,0l2.8-2.8a4.063,4.063,0,0,0,0-5.885l-.14-.14a4.31,4.31,0,0,1-.841-4.764c.28-.56.56-1.261.841-1.821a4.081,4.081,0,0,1,3.923-2.8h.14A4.215,4.215,0,0,0,90.313,183.668Z" transform="translate(-25.3 -149.2)"/>
              <circle id="Ellipse_14" data-name="Ellipse 14" class="cls-9" cx="16.814" cy="16.814" r="16.814" transform="translate(15.693 15.693)"/>
            </g>
            <g id="Group_243" data-name="Group 243" transform="translate(0 162.493)">
              <path id="Path_351" data-name="Path 351" class="cls-9" d="M45.528,159.773l.42-2.662a2.86,2.86,0,0,0-2.522-3.223h-.14a3,3,0,0,1-2.522-2.242c-.14-.42-.28-.981-.42-1.4a2.86,2.86,0,0,1,.981-3.223h.14a2.906,2.906,0,0,0,.56-4.063l-1.681-2.1a2.906,2.906,0,0,0-4.063-.56h-.14a2.959,2.959,0,0,1-3.363.14c-.42-.28-.841-.42-1.261-.7a2.928,2.928,0,0,1-1.541-2.942v-.14a2.86,2.86,0,0,0-2.522-3.223l-2.662-.42a2.86,2.86,0,0,0-3.223,2.522v.14a3,3,0,0,1-2.242,2.522c-.42.14-.981.28-1.4.42a2.86,2.86,0,0,1-3.223-.981v-.14a2.906,2.906,0,0,0-4.063-.56l-2.382,1.4A2.906,2.906,0,0,0,7.7,142.4v.14a2.959,2.959,0,0,1,.14,3.363c-.28.42-.42.841-.7,1.261A2.928,2.928,0,0,1,4.194,148.7h-.14a2.86,2.86,0,0,0-3.223,2.522l-.42,2.662a2.86,2.86,0,0,0,2.522,3.223h.14A3,3,0,0,1,5.6,159.353c.14.42.28.981.42,1.4a2.86,2.86,0,0,1-.981,3.223h-.14a2.906,2.906,0,0,0-.56,4.063l1.681,2.1a2.906,2.906,0,0,0,4.063.56h.14a2.959,2.959,0,0,1,3.363-.14c.42.28.841.42,1.261.7a2.928,2.928,0,0,1,1.541,2.942v.14a2.86,2.86,0,0,0,2.522,3.223l2.662.42a2.86,2.86,0,0,0,3.223-2.522v-.14a3,3,0,0,1,2.242-2.522c.42-.14.981-.28,1.4-.42a2.86,2.86,0,0,1,3.223.981v.14a2.906,2.906,0,0,0,4.063.56l2.1-1.681a2.906,2.906,0,0,0,.56-4.063v-.14a2.959,2.959,0,0,1-.14-3.363c.28-.42.42-.841.7-1.261a2.928,2.928,0,0,1,2.942-1.541h.14A2.63,2.63,0,0,0,45.528,159.773Z" transform="translate(-0.372 -132.972)"/>
              <circle id="Ellipse_15" data-name="Ellipse 15" class="cls-9" cx="11.77" cy="11.77" r="11.77" transform="matrix(0.192, -0.981, 0.981, 0.192, 9.012, 31.859)"/>
            </g>
            <path id="Path_352" data-name="Path 352" class="cls-4" d="M404.353,316.554H372.127a8.79,8.79,0,0,1-8.827-8.827h0a8.79,8.79,0,0,1,8.827-8.827h32.226a8.79,8.79,0,0,1,8.827,8.827h0A8.7,8.7,0,0,1,404.353,316.554Z" transform="translate(145.211 96.08)"/>
          </g>
          <g id="Group_266" data-name="Group 266" transform="translate(1.952 1)">
            <path id="Path_353" data-name="Path 353" class="cls-11" d="M444.535,341.874a15.667,15.667,0,0,1-15.693,15.693H71.693A15.667,15.667,0,0,1,56,341.874V93.593A15.667,15.667,0,0,1,71.693,77.9h357.15a15.667,15.667,0,0,1,15.693,15.693Z" transform="translate(20.362 29.847)"/>
            <g id="Group_245" data-name="Group 245" transform="translate(76.362 107.747)">
              <path id="Path_354" data-name="Path 354" class="cls-4" d="M428.842,93.593V341.734H71.693V93.593h357.15m0-15.693H71.693A15.667,15.667,0,0,0,56,93.593V341.734a15.667,15.667,0,0,0,15.693,15.693h357.15a15.667,15.667,0,0,0,15.693-15.693V93.593A15.667,15.667,0,0,0,428.842,77.9Z" transform="translate(-56 -77.9)"/>
            </g>
            <g id="Group_246" data-name="Group 246" transform="translate(130.726 141.655)">
              <path id="Path_355" data-name="Path 355" class="cls-12" d="M373.346,314.232A10.644,10.644,0,0,1,362.7,324.881H105.449A10.644,10.644,0,0,1,94.8,314.232V112.749A10.644,10.644,0,0,1,105.449,102.1H362.557a10.644,10.644,0,0,1,10.649,10.649V314.232Z" transform="translate(-94.8 -102.1)"/>
            </g>
            <g id="Group_247" data-name="Group 247" transform="translate(130.726 141.655)">
              <path id="Path_356" data-name="Path 356" class="cls-13" d="M362.557,102.1H105.449A10.644,10.644,0,0,0,94.8,112.749v19.616H373.206V112.749A10.556,10.556,0,0,0,362.557,102.1Z" transform="translate(-94.8 -102.1)"/>
            </g>
            <path id="Path_357" data-name="Path 357" class="cls-14" d="M192.642,314.008l-91.074-26.341a5.111,5.111,0,0,1-3.5-6.445l40.073-138.853a5.111,5.111,0,0,1,6.445-3.5l91.074,26.341a5.111,5.111,0,0,1,3.5,6.445L199.087,310.5A5.339,5.339,0,0,1,192.642,314.008Z" transform="translate(37.144 54.211)"/>
            <path id="Path_358" data-name="Path 358" class="cls-15" d="M190.442,309.908,99.368,283.566a5.111,5.111,0,0,1-3.5-6.445l40.072-138.853a5.111,5.111,0,0,1,6.445-3.5l91.074,26.341a5.111,5.111,0,0,1,3.5,6.445L196.887,306.4A5.339,5.339,0,0,1,190.442,309.908Z" transform="translate(36.262 52.566)"/>
            <g id="Group_248" data-name="Group 248" transform="translate(150.062 197.42)">
              <path id="Path_359" data-name="Path 359" class="cls-15" d="M212.564,143.021V295.6h-102.7V143.021h102.7m1.261-1.121H108.6V296.866H213.825V141.9Z" transform="translate(-108.6 -141.9)"/>
            </g>
            <g id="Group_249" data-name="Group 249" transform="translate(373.263 150.482)">
              <line id="Line_36" data-name="Line 36" class="cls-16" x2="17.374"/>
              <line id="Line_37" data-name="Line 37" class="cls-16" x2="17.374" transform="translate(0 6.866)"/>
              <line id="Line_38" data-name="Line 38" class="cls-16" x2="17.374" transform="translate(0 13.871)"/>
            </g>
            <path id="Path_360" data-name="Path 360" class="cls-15" d="M285.5,122.231H167.666a6.877,6.877,0,0,1-6.866-6.866h0a6.877,6.877,0,0,1,6.866-6.866H285.5a6.877,6.877,0,0,1,6.866,6.866h0A6.877,6.877,0,0,1,285.5,122.231Z" transform="translate(62.401 42.122)"/>
            <g id="Group_250" data-name="Group 250" transform="translate(141.375 153.705)">
              <line id="Line_39" data-name="Line 39" class="cls-17" x1="6.305" y2="6.165"/>
              <line id="Line_40" data-name="Line 40" class="cls-17" x1="6.305" y1="6.165"/>
            </g>
            <path id="Path_361" data-name="Path 361" class="cls-17" d="M126.882,116.865h0a3.11,3.11,0,0,1-3.082-3.082h0a3.11,3.11,0,0,1,3.082-3.083h0a3.11,3.11,0,0,1,3.082,3.083h0A3.11,3.11,0,0,1,126.882,116.865Z" transform="translate(47.559 43.005)"/>
            <line id="Line_41" data-name="Line 41" class="cls-17" x2="6.725" transform="translate(155.666 156.787)"/>
            <path id="Path_362" data-name="Path 362" class="cls-18" d="M0,0H131.286V29.844H0Z" transform="translate(209.89 387.414)"/>
            <path id="Path_363" data-name="Path 363" class="cls-11" d="M335.594,316.594H120.8A17.82,17.82,0,0,1,138.594,298.8H317.94a17.791,17.791,0,0,1,17.654,17.794Z" transform="translate(46.356 118.458)"/>
            <path id="Path_364" data-name="Path 364" class="cls-19" d="M281.148,201.711H204.506a6.938,6.938,0,0,1-7.006-7.006h0a6.938,6.938,0,0,1,7.006-7.006h76.642a6.938,6.938,0,0,1,7.006,7.006h0A7.119,7.119,0,0,1,281.148,201.711Z" transform="translate(77.123 73.892)"/>
            <path id="Path_365" data-name="Path 365" class="cls-19" d="M281.148,219.811H204.506a6.938,6.938,0,0,1-7.006-7.006h0a6.938,6.938,0,0,1,7.006-7.006h76.642a6.938,6.938,0,0,1,7.006,7.006h0A7.026,7.026,0,0,1,281.148,219.811Z" transform="translate(77.123 81.153)"/>
            <path id="Path_366" data-name="Path 366" class="cls-19" d="M276.106,201.711h0a6.938,6.938,0,0,1-7.006-7.006h0a6.938,6.938,0,0,1,7.006-7.006h0a6.938,6.938,0,0,1,7.006,7.006h0A7.119,7.119,0,0,1,276.106,201.711Z" transform="translate(105.844 73.892)"/>
            <path id="Path_367" data-name="Path 367" class="cls-19" d="M276.106,219.811h0a6.938,6.938,0,0,1-7.006-7.006h0a6.938,6.938,0,0,1,7.006-7.006h0a6.938,6.938,0,0,1,7.006,7.006h0A7.026,7.026,0,0,1,276.106,219.811Z" transform="translate(105.844 81.153)"/>
            <path id="Path_368" data-name="Path 368" class="cls-19" d="M288.154,231.806a6.938,6.938,0,0,1-7.006,7.006H204.506a6.938,6.938,0,0,1-7.006-7.006h0a6.938,6.938,0,0,1,7.006-7.006h76.642a7.026,7.026,0,0,1,7.006,7.006Z" transform="translate(77.123 88.774)"/>
            <path id="Path_369" data-name="Path 369" class="cls-19" d="M288.154,250.006a6.938,6.938,0,0,1-7.006,7.006H204.506a6.938,6.938,0,0,1-7.006-7.006h0A6.938,6.938,0,0,1,204.506,243h76.642a7.026,7.026,0,0,1,7.006,7.006Z" transform="translate(77.123 96.075)"/>
            <path id="Path_370" data-name="Path 370" class="cls-19" d="M276.106,238.811h0a6.938,6.938,0,0,1-7.006-7.006h0a6.938,6.938,0,0,1,7.006-7.006h0a6.938,6.938,0,0,1,7.006,7.006h0A7.026,7.026,0,0,1,276.106,238.811Z" transform="translate(105.844 88.774)"/>
            <path id="Path_371" data-name="Path 371" class="cls-19" d="M283.111,250.006a6.938,6.938,0,0,1-7.006,7.006h0a6.938,6.938,0,0,1-7.006-7.006h0A6.938,6.938,0,0,1,276.106,243h0a7.026,7.026,0,0,1,7.006,7.006Z" transform="translate(105.844 96.075)"/>
            <line id="Line_42" data-name="Line 42" class="cls-20" x2="93.596" transform="translate(400.305 456.77)"/>
            <line id="Line_43" data-name="Line 43" class="cls-21" x1="193.777" transform="translate(0 435.193)"/>
            <g id="Group_253" data-name="Group 253" transform="translate(96.245 310.352)">
              <path id="Path_372" data-name="Path 372" class="cls-22" d="M95.919,236.391c1.681,4.063,5.464,10.509,9.948,14.151,5.044,4.063,10.228,3.5,15.553,0a.937.937,0,0,1,1.4.28,1.043,1.043,0,0,1-.14,1.261c-12.05,11.489-25.921,1.4-33.347-12.75-2.242-4.2,4.2-7.706,6.445-3.363a.515.515,0,0,1,.14.42Z" transform="translate(-62.699 -217.896)"/>
              <path id="Path_373" data-name="Path 373" class="cls-23" d="M100.256,244.1h0a73.046,73.046,0,0,1-4.484-8.127,3.635,3.635,0,1,0-6.445,3.363,43.733,43.733,0,0,0,4.764,7.286C94.651,246.2,98.995,244.655,100.256,244.1Z" transform="translate(-62.693 -217.894)"/>
              <path id="Path_374" data-name="Path 374" class="cls-24" d="M98.118,261.562a2.66,2.66,0,0,0,2.662-2.662c0-1.681.14-3.5,0-5.324-.56-6.305-1.121-12.75-1.4-16.393a3.356,3.356,0,0,0-3.363-3.082H84.387a3.469,3.469,0,0,0-3.5,3.5c-.14,4.624-.42,13.311-.981,21.017h0a2.729,2.729,0,0,0,2.662,2.942Z" transform="translate(-66.299 -217.847)"/>
              <path id="Path_375" data-name="Path 375" class="cls-22" d="M91.664,311.372c-1.261-1.4-1.541-4.624-1.541-7.566a1.833,1.833,0,0,0-3.223-1.121h0v9.107C88.581,312.353,90.683,312.353,91.664,311.372Z" transform="translate(-63.488 -190.594)"/>
              <path id="Path_376" data-name="Path 376" class="cls-25" d="M91.692,308.6h0a7.934,7.934,0,0,1-2.522.42,10.888,10.888,0,0,1-2.242-.28l-.42,2.1a.924.924,0,0,0,.981,1.121c2.942.14,10.509.28,10.649,0C99.118,310.421,94.774,309.861,91.692,308.6Z" transform="translate(-63.657 -187.962)"/>
              <path id="Path_377" data-name="Path 377" class="cls-26" d="M87.383,293.893c-.42,2.8-.42,20.316.14,29.284h3.783c1.962-8.687,3.643-25.5,4.063-28.163v-.14c2.1-9.388,3.223-27.462,3.082-31.245-.14-5.044-3.363-8.967-7.286-8.827S84.3,259,84.3,264.049C84.58,267.131,87.523,292.492,87.383,293.893Z" transform="translate(-64.531 -209.544)"/>
              <path id="Path_378" data-name="Path 378" class="cls-27" d="M98.451,263.628c-.14-5.044-3.363-8.967-7.286-8.827S84.3,259,84.3,264.049c0,2.242,1.681,16.253,2.522,24.24.841-1.821,1.681-3.643,2.382-5.464a21.653,21.653,0,0,1,9.107-15.833C98.451,265.45,98.451,264.329,98.451,263.628Z" transform="translate(-64.531 -209.544)"/>
              <path id="Path_379" data-name="Path 379" class="cls-24" d="M75.513,310.5c-.28-2.662.981-5.745,2.1-8.687h0a1.942,1.942,0,0,0-3.5,0L71.73,307.14a.426.426,0,0,0,0,.56A5.086,5.086,0,0,0,75.513,310.5Z" transform="translate(-69.616 -191.126)"/>
              <path id="Path_380" data-name="Path 380" class="cls-25" d="M78.19,310.664a4.084,4.084,0,0,1-1.962-2.1,6.052,6.052,0,0,1-3.783-3.363,6.473,6.473,0,0,0-.981.981,10.7,10.7,0,0,1-1.121,1.541.692.692,0,0,0,.14.981l1.4,1.4c.28.28,2.942,2.522,3.643,2.662,1.821.28,5.044.56,5.184.14C80.852,312.066,79.451,311.225,78.19,310.664Z" transform="translate(-70.191 -189.326)"/>
              <path id="Path_381" data-name="Path 381" class="cls-28" d="M81.927,291.932c-.981,2.1-6.725,20.457-8.827,29.284a4.554,4.554,0,0,0,3.363,1.4c3.643-7.006,12.19-22.418,13.731-25.921,2.942-4.344,6.165-29.144,6.025-33.767-.14-5.044-3.363-8.967-7.286-8.827s-7.566,4.063-7.566,9.107C81.507,266.431,82.628,290.39,81.927,291.932Z" transform="translate(-69.024 -209.825)"/>
              <path id="Path_382" data-name="Path 382" class="cls-29" d="M96.5,234.1H94.679a4.65,4.65,0,0,1-8.407,0H84.591a3.142,3.142,0,0,0-3.223,3.082c-.14,4.624-.28,10.509-.841,18.495-.42,7.286-2.1,9.528-1.261,18.775,0,0,15.693,1.541,21.437-1.4a91.12,91.12,0,0,0,.56-19.476c-.56-6.305-1.121-12.75-1.4-16.533A3.452,3.452,0,0,0,96.5,234.1Z" transform="translate(-66.644 -217.847)"/>
              <path id="Path_383" data-name="Path 383" class="cls-22" d="M115.628,244.961s-3.083-.28-3.363.56-.56,1.541.841,2.242a10.652,10.652,0,0,0,4.624.7,8.458,8.458,0,0,0,3.5-1.4c.56-.981-1.681-.56-2.8-.42s-2.382.28-2.242-.28,2.242-.7,2.522-1.261C118.711,244.4,115.628,244.961,115.628,244.961Z" transform="translate(-53.405 -213.575)"/>
              <path id="Path_384" data-name="Path 384" class="cls-24" d="M86.995,237.732c5.044,11.349,29.7,10.509,37.13,10.649h0a1,1,0,0,1,.981,1.121c0,1.261-1.541,1.121-6.585,2.1C83.912,258.329,74.1,235.49,82.511,234.51,85.314,234.089,86.995,237.732,86.995,237.732Z" transform="translate(-66.386 -217.696)"/>
              <g id="Group_251" data-name="Group 251" transform="translate(13.015 16.391)">
                <path id="Path_385" data-name="Path 385" class="cls-23" d="M91,241.907c-3.363-2.382-3.923-4.764-3.923-4.764v.14l-.28-.56a4.037,4.037,0,0,0-5.184-2.242h-.14c-2.382.981-1.962,3.923-1.962,3.923,0,.42.841,5.044,6.445,9.247C86.094,247.652,91.418,242.327,91,241.907Z" transform="translate(-79.48 -234.198)"/>
              </g>
              <path id="Path_386" data-name="Path 386" class="cls-30" d="M86.763,232.466h-.28a3.11,3.11,0,0,1-3.083-3.082V224.9h3.223v7.566Z" transform="translate(-64.892 -221.537)"/>
              <g id="Group_252" data-name="Group 252" transform="translate(20.049 10.228)">
                <path id="Path_387" data-name="Path 387" class="cls-24" d="M90.525,235.825H84.5l1.821-6.025,4.063.42Z" transform="translate(-84.5 -229.8)"/>
              </g>
              <path id="Path_388" data-name="Path 388" class="cls-22" d="M90.1,230.26l-4.063-.56-.841,2.8c.981.981,2.242,2.662,3.783,2.662a1.956,1.956,0,0,0,1.261-.42Z" transform="translate(-64.17 -219.612)"/>
              <path id="Path_389" data-name="Path 389" class="cls-24" d="M89.344,235.149h0A5.023,5.023,0,0,1,84.3,230.1v-5.6h8.687a48.519,48.519,0,0,1-.56,7.286C91.866,234.168,90.745,235.149,89.344,235.149Z" transform="translate(-64.531 -221.698)"/>
              <path id="Path_390" data-name="Path 390" class="cls-24" d="M86.022,228.362c0,1.121-.56,1.962-1.121,1.962-.7,0-1.4-1.4-1.4-2.522a1.25,1.25,0,0,1,1.4-1.4C85.462,226.4,86.022,227.241,86.022,228.362Z" transform="translate(-64.852 -220.936)"/>
              <path id="Path_391" data-name="Path 391" class="cls-30" d="M94.149,222.5a12.83,12.83,0,0,1-4.484.28H86.723A3.171,3.171,0,0,0,83.5,226v.7l.981,1.261.981,1.4h.14a.958.958,0,0,0,.981-.981,1.682,1.682,0,0,1,1.541-1.681h2.662c1.541,0,2.382.841,2.382,1.962l-.14.981C93.028,229.786,95.41,227.824,94.149,222.5Z" transform="translate(-64.852 -222.5)"/>
              <path id="Path_392" data-name="Path 392" class="cls-24" d="M114.224,244.589s-2.942-.7-3.5,0c-.56.841-.7,1.541.42,2.242a10.712,10.712,0,0,0,4.484,1.541,6.894,6.894,0,0,0,3.643-.841c.7-.841-1.681-.841-2.8-.841s-2.382-.14-2.242-.7,2.242-.28,2.662-.841C117.447,244.589,114.224,244.589,114.224,244.589Z" transform="translate(-54.103 -213.764)"/>
            </g>
            <g id="Group_258" data-name="Group 258" transform="translate(229.646 267.116)">
              <path id="Path_393" data-name="Path 393" class="cls-22" d="M199.531,225.677a6.609,6.609,0,0,1-8.407-2.1c-4.2-5.464-5.044-19.055-5.324-26.061a1.066,1.066,0,0,1,2.1-.28c.841,4.063,1.541,7.566,2.382,10.929.841,2.942,3.923,13.731,6.445,12.05,3.223-2.1,6.445-11.629,6.025-10.228a3.591,3.591,0,0,1,6.725,2.522C209.059,214.048,204.855,223.155,199.531,225.677Z" transform="translate(-157.217 -189.728)"/>
              <path id="Path_394" data-name="Path 394" class="cls-31" d="M194.9,214.555c.841-1.261,1.541-2.522,2.382-3.783.7-1.261,1.4-2.662,1.962-3.923h0c0-.14.14-.14.14-.28a3.635,3.635,0,0,1,6.445,3.363,34.421,34.421,0,0,1-2.662,4.484c-.7.981-1.541,2.522-2.242,3.363C196.441,217.5,194.9,214.555,194.9,214.555Z" transform="translate(-153.567 -186.452)"/>
              <path id="Path_395" data-name="Path 395" class="cls-24" d="M197.714,240.369a2.02,2.02,0,0,0,1.261,1.541c4.484,1.541,11.209,2.242,18.495,2.942a1.732,1.732,0,0,0,1.962-1.822c0-2.942-1.261-8.407-1.541-14.011-.42-6.866-.7-14.432-.841-19.336a5.385,5.385,0,0,0-5.324-5.184H203.6a5.1,5.1,0,0,0-5.184,4.764c-.28,3.783-.7,9.247-1.261,14.712C196.594,229.16,197.434,237.427,197.714,240.369Z" transform="translate(-152.738 -186.485)"/>
              <path id="Path_396" data-name="Path 396" class="cls-22" d="M208.109,274.364v7.146l.56,3.5a.924.924,0,0,1-.981,1.121c-2.942.14-10.509.28-10.649,0-.981-1.541,3.363-2.1,6.445-3.363s.981-13.171.981-13.171Z" transform="translate(-152.765 -160.371)"/>
              <path id="Path_397" data-name="Path 397" class="cls-32" d="M203.587,279.1h0a7.934,7.934,0,0,0,2.522.42,10.888,10.888,0,0,0,2.242-.28l.42,2.1a.924.924,0,0,1-.981,1.121c-2.942.14-10.509.28-10.649,0C196.161,280.921,200.364,280.221,203.587,279.1Z" transform="translate(-152.725 -156.561)"/>
              <path id="Path_398" data-name="Path 398" class="cls-33" d="M197.4,234.167c-.14,5.044,1.821,36.71,5.745,36.71,3.923.14,8.267-31.385,8.267-36.43.14-5.044-2.942-9.107-6.866-9.247C200.765,225.2,197.542,229.123,197.4,234.167Z" transform="translate(-152.566 -178.182)"/>
              <path id="Path_399" data-name="Path 399" class="cls-34" d="M208.472,264.293c.42,2.8.42,20.316-.14,29.284h-3.5c-1.962-8.687-3.923-25.5-4.344-28.163v-.14c-2.1-9.388-3.223-27.462-3.082-31.245.14-5.044,3.363-8.967,7.286-8.827s6.866,4.2,6.866,9.248C211.415,237.531,208.332,263.032,208.472,264.293Z" transform="translate(-152.567 -178.183)"/>
              <path id="Path_400" data-name="Path 400" class="cls-35" d="M206.547,252.8c.841,2.1,1.681,4.2,2.382,6.305.841-7.986,2.522-22.418,2.522-24.66.14-5.044-2.942-9.107-6.866-9.248s-7.146,3.923-7.286,8.827v3.363A21.449,21.449,0,0,1,206.547,252.8Z" transform="translate(-152.604 -178.183)"/>
              <path id="Path_401" data-name="Path 401" class="cls-22" d="M214.209,274.364v7.146l.56,3.5a.924.924,0,0,1-.981,1.121c-2.942.14-10.509.28-10.649,0-.981-1.541,3.363-2.1,6.445-3.363s.981-13.171.981-13.171Z" transform="translate(-150.318 -160.371)"/>
              <path id="Path_402" data-name="Path 402" class="cls-36" d="M209.586,279.1h0a7.933,7.933,0,0,0,2.522.42,10.888,10.888,0,0,0,2.242-.28l.42,2.1a.924.924,0,0,1-.981,1.121c-2.942.14-10.509.28-10.649,0C202.16,280.921,206.5,280.221,209.586,279.1Z" transform="translate(-150.318 -156.561)"/>
              <path id="Path_403" data-name="Path 403" class="cls-33" d="M203.5,234.167c-.14,5.044,1.821,36.71,5.745,36.71,3.923.14,7.426-31.526,7.426-36.57.14-5.044-2.1-8.967-6.025-9.107C206.865,225.2,203.642,229.123,203.5,234.167Z" transform="translate(-150.119 -178.182)"/>
              <path id="Path_404" data-name="Path 404" class="cls-33" d="M214.812,264.292c.42,2.8.42,20.316-.14,29.284h-3.5c-1.962-8.687-3.923-25.5-4.344-28.163v-.14c-2.1-9.388-4.063-27.6-3.923-31.245.14-5.044,4.2-8.827,8.127-8.827,3.923.14,6.025,4.063,6.025,9.107C216.773,237.53,214.672,263.031,214.812,264.292Z" transform="translate(-150.359 -178.182)"/>
              <path id="Path_405" data-name="Path 405" class="cls-37" d="M198.474,207.582a3.365,3.365,0,0,1,3.363-3.082h1.821a4.65,4.65,0,0,0,8.407,0h1.681a3.142,3.142,0,0,1,3.223,3.082c.14,4.624.28,11.489.841,19.476.42,7.286,2.522,10.509,1.541,17.794,0,0-18.915,1.4-22.138-2.242a135.512,135.512,0,0,1-.14-18.775C197.633,217.671,198.194,211.225,198.474,207.582Z" transform="translate(-152.797 -186.485)"/>
              <path id="Path_406" data-name="Path 406" class="cls-22" d="M185.1,196.767s.14,3.5.981,4.063c.841.42,1.4.28,2.1-.841a9.2,9.2,0,0,0,.981-4.624,16.115,16.115,0,0,0-1.121-3.643c-.841-.56-.42,1.962-.28,3.082,0,1.121-.28,1.681-.841,1.541s-.42-1.821-.981-2.242C185.24,193.965,185.1,196.767,185.1,196.767Z" transform="translate(-157.498 -191.643)"/>
              <path id="Path_407" data-name="Path 407" class="cls-24" d="M224.226,210.5c-10.228,13.871-29.144,22-43.435,8.547a1.063,1.063,0,0,1,1.261-1.681h0c6.585,3.783,12.61,5.464,20.176,2.242,6.305-2.662,12.05-7.986,15.973-13.451l.14-.14C221.283,202.234,227.028,206.577,224.226,210.5Z" transform="translate(-159.353 -186.461)"/>
              <g id="Group_254" data-name="Group 254" transform="translate(53.664 18.106)">
                <path id="Path_408" data-name="Path 408" class="cls-31" d="M203.7,211.9a68.494,68.494,0,0,0,5.6-6.445s1.4-1.681,4.484-.42c2.382.981,1.962,3.923,1.962,3.923,0,.42-.841,5.044-6.445,9.247C209.3,218.065,204.821,216.1,203.7,211.9Z" transform="translate(-203.7 -204.565)"/>
              </g>
              <path id="Path_409" data-name="Path 409" class="cls-30" d="M205.1,203.666h.28a2.974,2.974,0,0,0,3.643-2.382L210,196.8l-3.223-.7Z" transform="translate(-149.475 -189.855)"/>
              <g id="Group_255" data-name="Group 255" transform="translate(52.683 11.99)">
                <path id="Path_410" data-name="Path 410" class="cls-24" d="M203,206.225h6.025l-1.681-6.025-4.2.56Z" transform="translate(-203 -200.2)"/>
              </g>
              <path id="Path_411" data-name="Path 411" class="cls-22" d="M203.14,200.76l4.063-.56.841,2.8c-.981.981-2.242,2.662-3.783,2.662a1.956,1.956,0,0,1-1.261-.42Z" transform="translate(-150.317 -188.21)"/>
              <path id="Path_412" data-name="Path 412" class="cls-24" d="M203.306,206.069h0a5.107,5.107,0,0,0,6.025-3.783l1.261-5.464L202.185,195a41.921,41.921,0,0,0-.981,7.286C201.064,204.388,201.9,205.789,203.306,206.069Z" transform="translate(-151.044 -190.296)"/>
              <path id="Path_413" data-name="Path 413" class="cls-24" d="M206.126,199.686c-.28,1.121.14,2.1.7,2.242.7.14,1.681-1.121,1.822-2.242a1.246,1.246,0,0,0-.981-1.681C207.106,197.865,206.406,198.566,206.126,199.686Z" transform="translate(-149.099 -189.098)"/>
              <path id="Path_414" data-name="Path 414" class="cls-30" d="M201.1,197.578a10.818,10.818,0,0,1,.28-2.1h0a3.318,3.318,0,0,1,4.2-1.822c.14,0,.42.14.56.14l2.8.7a3.178,3.178,0,0,1,2.382,3.783l-.14.7-1.261.981-1.121,1.121h-.14a1.174,1.174,0,0,1-.841-1.121A1.642,1.642,0,0,0,206.7,198l-2.522-.56c-1.541-.28-2.522.28-2.8,1.4l-.14.981Z" transform="translate(-151.079 -190.912)"/>
              <path id="Path_415" data-name="Path 415" class="cls-24" d="M180.252,214.159s.28,3.083,1.121,3.223c.981.28,1.681.28,2.1-1.121a10.283,10.283,0,0,0,0-4.624,7.963,7.963,0,0,0-1.962-3.223c-.981-.42-.28,1.822.14,2.942s.56,2.242,0,2.382c-.56,0-.981-2.1-1.681-2.242C179.272,211.217,180.252,214.159,180.252,214.159Z" transform="translate(-159.656 -184.936)"/>
              <g id="Group_256" data-name="Group 256" transform="translate(23.399 39.172)">
                <line id="Line_44" data-name="Line 44" class="cls-38" x2="23.399" y2="128.764" transform="translate(34.608)"/>
                <line id="Line_45" data-name="Line 45" class="cls-38" x1="23.399" y1="128.764"/>
                <line id="Line_46" data-name="Line 46" class="cls-38" x2="33.767" transform="translate(2.802 10.368)"/>
                <line id="Line_47" data-name="Line 47" class="cls-38" x2="34.328" transform="translate(5.044 25.921)"/>
                <line id="Line_48" data-name="Line 48" class="cls-38" x2="34.048" transform="translate(8.127 41.474)"/>
                <line id="Line_49" data-name="Line 49" class="cls-38" x2="33.767" transform="translate(11.209 57.026)"/>
                <line id="Line_50" data-name="Line 50" class="cls-38" x2="34.188" transform="translate(13.591 72.439)"/>
                <line id="Line_51" data-name="Line 51" class="cls-38" x2="34.748" transform="translate(15.833 87.711)"/>
                <line id="Line_52" data-name="Line 52" class="cls-38" x2="34.188" transform="translate(19.336 103.544)"/>
                <line id="Line_53" data-name="Line 53" class="cls-38" x2="34.328" transform="translate(21.577 119.097)"/>
              </g>
              <g id="Group_257" data-name="Group 257" transform="translate(0 39.172)">
                <line id="Line_54" data-name="Line 54" class="cls-39" x1="23.399" y2="128.764"/>
                <line id="Line_55" data-name="Line 55" class="cls-39" y1="128.764" x2="23.399" transform="translate(34.608)"/>
                <line id="Line_56" data-name="Line 56" class="cls-39" x1="33.907" transform="translate(21.437 10.368)"/>
                <line id="Line_57" data-name="Line 57" class="cls-39" x1="34.468" transform="translate(18.635 25.921)"/>
                <line id="Line_58" data-name="Line 58" class="cls-39" x1="34.048" transform="translate(15.833 41.474)"/>
                <line id="Line_59" data-name="Line 59" class="cls-39" x1="33.907" transform="translate(13.031 57.026)"/>
                <line id="Line_60" data-name="Line 60" class="cls-39" x1="34.188" transform="translate(10.228 72.439)"/>
                <line id="Line_61" data-name="Line 61" class="cls-39" x1="34.748" transform="translate(7.426 87.711)"/>
                <line id="Line_62" data-name="Line 62" class="cls-39" x1="34.188" transform="translate(4.484 103.544)"/>
                <line id="Line_63" data-name="Line 63" class="cls-39" x1="34.328" transform="translate(2.102 119.097)"/>
              </g>
              <path id="Path_416" data-name="Path 416" class="cls-30" d="M210.052,195.568c.14,1.541-5.464,3.5-6.866,3.783a2.911,2.911,0,0,1-3.082-2.522,2.941,2.941,0,0,1,2.382-3.223C203.887,193.466,209.772,194.026,210.052,195.568Z" transform="translate(-151.484 -190.864)"/>
            </g>
            <path id="Path_417" data-name="Path 417" class="cls-40" d="M0,0H115.874V50.3H0Z" transform="translate(274.763 197.42)"/>
            <path id="Path_418" data-name="Path 418" class="cls-41" d="M311.147,157.551,206.622,178.568a4.62,4.62,0,0,1-5.464-3.643l-8.127-40.213a4.621,4.621,0,0,1,3.643-5.464L301.2,108.231a4.621,4.621,0,0,1,5.464,3.643l8.127,40.213A4.488,4.488,0,0,1,311.147,157.551Z" transform="translate(75.287 41.971)"/>
            <path id="Path_419" data-name="Path 419" class="cls-15" d="M311.547,153.951,207.022,174.968a4.62,4.62,0,0,1-5.464-3.643l-8.127-40.213a4.62,4.62,0,0,1,3.643-5.464L301.6,104.631a4.62,4.62,0,0,1,5.464,3.643l8.127,40.213A4.729,4.729,0,0,1,311.547,153.951Z" transform="translate(75.447 40.527)"/>
            <path id="Path_420" data-name="Path 420" class="cls-42" d="M194.9,184.141l14.011-22.558L211.433,10.4l80.145,133.949,17.094,12.75" transform="translate(76.08 2.771)"/>
            <g id="Group_261" data-name="Group 261" transform="translate(118.477 0.701)">
              <path id="Path_421" data-name="Path 421" class="cls-43" d="M122.644,56.3c2.662,2.662,23.119,24.52,22,25.22-.981.56-25.08-16.814-27.743-19.476s-3.643-6.165-1.962-7.706C116.479,52.656,119.842,53.637,122.644,56.3Z" transform="translate(-74.806 19.362)"/>
              <path id="Path_422" data-name="Path 422" class="cls-24" d="M144.531,78.609c-2.662-1.261-7.566-6.025-12.47-10.509L130.8,71.323l7.846,7.286C140.468,79.309,143.27,79.449,144.531,78.609Z" transform="translate(-68.11 25.216)"/>
              <path id="Path_423" data-name="Path 423" class="cls-36" d="M141.864,75.4a10.5,10.5,0,0,1-5.464.28v2.662a.662.662,0,0,0,.7.7s12.05.14,12.05-.42C149.01,75.54,142.705,75.82,141.864,75.4Z" transform="translate(-65.864 28.144)"/>
              <path id="Path_424" data-name="Path 424" class="cls-24" d="M155.231,78.609c-2.662-1.261-7.566-6.025-12.47-10.509L141.5,71.323l7.846,7.286C151.168,79.309,153.83,79.449,155.231,78.609Z" transform="translate(-63.818 25.216)"/>
              <path id="Path_425" data-name="Path 425" class="cls-36" d="M152.564,75.4a10.5,10.5,0,0,1-5.464.28v2.662a.662.662,0,0,0,.7.7s12.05.14,12.05-.42C159.71,75.54,153.405,75.82,152.564,75.4Z" transform="translate(-61.572 28.144)"/>
              <path id="Path_426" data-name="Path 426" class="cls-34" d="M136.057,66.414c1.681,1.681,16.674,13.451,24.24,18.635a13.426,13.426,0,0,0,2.522-2.382c-5.184-5.885-16.533-19.336-19.2-22.138-2.942-4.344-24.94-16.253-29.284-17.935-4.624-1.681-9.528-.14-10.929,3.5s1.121,8.547,5.745,10.368C112.238,57.587,134.936,65.293,136.057,66.414Z" transform="translate(-79.252 14.712)"/>
              <path id="Path_427" data-name="Path 427" class="cls-35" d="M116.361,43.535a16.554,16.554,0,0,0-1.821-.841c-4.624-1.681-9.528-.14-10.929,3.5s1.121,8.547,5.745,10.368c1.541.56,7.986,2.8,14.292,5.044A36.7,36.7,0,0,1,116.361,43.535Z" transform="translate(-79.172 14.752)"/>
              <path id="Path_428" data-name="Path 428" class="cls-33" d="M130.426,59.062c-1.821-2.662-11.349-8.547-19.055-12.75a3.208,3.208,0,0,0-3.5.28c-2.242,1.681-4.764,3.082-7.146,4.624a3.655,3.655,0,0,0-1.541,2.942V55c0,.42-.28.28-.28.7,7.146,2.522,22.979,8.407,23.819,9.388,1.681,1.681,16.814,13.591,24.24,18.775a7.007,7.007,0,0,0,3.223-2.242C145.137,75.6,133.088,61.864,130.426,59.062Z" transform="translate(-80.907 16.319)"/>
              <path id="Path_429" data-name="Path 429" class="cls-22" d="M100.441,22.295c9.107,8.407,28.3,9.247,40.633,8.827a1.062,1.062,0,0,1,.28,2.1c-14.432,2.8-33.767,3.5-45.537-5.324-3.783-2.942.56-8.687,4.344-5.885C100.161,22.155,100.3,22.155,100.441,22.295Z" transform="translate(-82.728 6.428)"/>
              <path id="Path_430" data-name="Path 430" class="cls-44" d="M107.757,26.17c-1.261-.7-6.445-3.223-7.566-4.063h0c-.14,0-.14-.14-.28-.14a3.654,3.654,0,1,0-3.923,6.165,36.148,36.148,0,0,0,4.484,2.522,22.355,22.355,0,0,0,3.223,1.4C103.834,31.214,107.757,26.17,107.757,26.17Z" transform="translate(-82.758 6.476)"/>
              <path id="Path_431" data-name="Path 431" class="cls-24" d="M119.917,51.246,103.8,65.537c-1.962-.7-3.783-7.846-6.866-14.432C93.576,44.1,89.512,36.394,87.411,32.33a3.631,3.631,0,0,1,1.4-4.764L98.9,21.822a3.369,3.369,0,0,1,4.484,1.121c2.1,3.082,5.044,10.228,8.547,15.412C115.573,43.539,119.917,51.246,119.917,51.246Z" transform="translate(-85.67 6.481)"/>
              <path id="Path_432" data-name="Path 432" class="cls-45" d="M99.121,21.833l-1.681.981a4.151,4.151,0,0,1-2.382,4.344,4.4,4.4,0,0,1-5.044-.28l-1.541.841a3.212,3.212,0,0,0-1.261,4.344c2.1,4.063,6.165,11.91,9.668,19.055,3.082,6.585,4.764,13.311,6.866,14.432,7.146-4.9,16.253-10.088,17.234-14.572,0,0-11.209-16.533-17.654-28.163C102.624,21.273,100.663,20.993,99.121,21.833Z" transform="translate(-85.752 6.47)"/>
              <path id="Path_433" data-name="Path 433" class="cls-22" d="M130.985,31s-2.8,1.261-3.5.56-.981-1.261,0-2.382a10.655,10.655,0,0,1,4.063-2.242,7.463,7.463,0,0,1,3.783.28c.841.7-1.541,1.121-2.522,1.261-1.121.28-2.382.56-2.1,1.121s2.382-.14,2.8.42C134.067,30.436,130.985,31,130.985,31Z" transform="translate(-69.696 8.656)"/>
              <path id="Path_434" data-name="Path 434" class="cls-46" d="M91.764,22.926h-.28A3.244,3.244,0,0,1,87.841,20.4L87,16.06l3.223-.56Z" transform="translate(-85.68 4.116)"/>
              <g id="Group_259" data-name="Group 259" transform="translate(5.523 26.061)">
                <path id="Path_435" data-name="Path 435" class="cls-24" d="M95.6,25.424l-5.044,2.1-.56-.56.28-6.585,4.063-.28Z" transform="translate(-90 -20.1)"/>
              </g>
              <path id="Path_436" data-name="Path 436" class="cls-22" d="M94.344,20.1l-4.2.28L90,23.042c1.121.841,2.382,1.821,3.923,1.541a3.674,3.674,0,0,0,1.261-.7Z" transform="translate(-84.477 5.961)"/>
              <path id="Path_437" data-name="Path 437" class="cls-24" d="M94.666,25.369h0a4.976,4.976,0,0,1-5.885-4.063L87.8,15.841,96.347,14.3a38.72,38.72,0,0,1,.7,7.286C96.907,23.828,96.067,25.089,94.666,25.369Z" transform="translate(-85.359 3.635)"/>
              <rect id="Rectangle_54" data-name="Rectangle 54" class="cls-46" width="1.681" height="0.701" transform="translate(2.232 21.605) rotate(-10.72)"/>
              <path id="Path_438" data-name="Path 438" class="cls-24" d="M90.168,18.921c.14,1.121-.14,2.1-.841,2.1-.7.14-1.541-1.121-1.821-2.242A1.316,1.316,0,0,1,88.627,17.1C89.188,17.1,89.888,17.8,90.168,18.921Z" transform="translate(-85.486 4.758)"/>
              <path id="Path_439" data-name="Path 439" class="cls-46" d="M97.481,17.22a5.446,5.446,0,0,0-.28-2.1s-.42-2.522-1.541-2.8c-.981-.28-2.382.56-3.223.981a19.09,19.09,0,0,1-2.8.56,3.235,3.235,0,0,0-2.522,3.783l.14.7,1.681.981.7,1.261h.14c.56-.14.981-.56.841-1.121A1.731,1.731,0,0,1,91.876,17.5l2.522-.42a2.189,2.189,0,0,1,2.8,1.541l.14.981Z" transform="translate(-85.652 2.816)"/>
              <line id="Line_64" data-name="Line 64" class="cls-47" x1="125.402" y2="53.804" transform="translate(26.12)"/>
              <path id="Path_440" data-name="Path 440" class="cls-24" d="M100.853,34.311a31.355,31.355,0,0,0,13.311,3.783c7.846.981,21.858-3.783,20.457-3.363,1.261-.42,1.821,1.261.841,1.962-6.165,3.223-14.572,6.725-21.157,6.725h-3.363C100.012,43,90.9,37.394,86.981,31.649a3.716,3.716,0,0,1,.841-5.044C91.885,23.8,92.866,29.828,100.853,34.311Z" transform="translate(-85.942 8.283)"/>
              <g id="Group_260" data-name="Group 260" transform="translate(0 34.062)">
                <path id="Path_441" data-name="Path 441" class="cls-44" d="M98.026,32.241a49.127,49.127,0,0,1-5.184-4.9v.14l-1.962-1.541s-2.1-.841-4.2,1.821c-1.541,2.1.28,4.344.28,4.344.28.28,1.4,3.082,7.286,6.445C94.243,38.546,98.447,32.521,98.026,32.241Z" transform="translate(-86.058 -25.81)"/>
              </g>
              <path id="Path_442" data-name="Path 442" class="cls-24" d="M123.295,31.679s-2.942.56-3.082,1.541,0,1.681,1.4,1.821a10.044,10.044,0,0,0,4.624-.56A9.234,9.234,0,0,0,129.18,32.1c.28-1.121-1.821,0-2.8.42s-2.242.841-2.242.28c-.14-.56,1.962-1.261,2.1-1.962C126.1,30.277,123.295,31.679,123.295,31.679Z" transform="translate(-72.375 10.215)"/>
            </g>
            <path id="Path_443" data-name="Path 443" class="cls-11" d="M278.786,193.745a3.643,3.643,0,1,1-7.286,0,3.709,3.709,0,0,1,3.643-3.643A3.532,3.532,0,0,1,278.786,193.745Z" transform="translate(106.807 74.852)"/>
            <path id="Path_444" data-name="Path 444" class="cls-11" d="M278.786,211.743a3.643,3.643,0,1,1-7.286,0,3.643,3.643,0,1,1,7.286,0Z" transform="translate(106.807 82.075)"/>
            <g id="Group_265" data-name="Group 265" transform="translate(377.046 330.34)">
              <path id="Path_445" data-name="Path 445" class="cls-12" d="M299.011,239.9a7.147,7.147,0,0,1,.28,4.484,7.266,7.266,0,0,0,1.541,7.006,27.358,27.358,0,0,1,.981-4.624C302.514,245.224,302.094,240.741,299.011,239.9Z" transform="translate(-259.219 -235.509)"/>
              <path id="Path_446" data-name="Path 446" class="cls-48" d="M303.985,239.729s-3.363,2.1-2.942,4.9c0,0-1.821-1.261-2.242-5.6C298.661,236.086,303.985,239.729,303.985,239.729Z" transform="translate(-259.289 -236.319)"/>
              <path id="Path_447" data-name="Path 447" class="cls-12" d="M321.918,252.25a6.89,6.89,0,0,1-3.783-3.643,11.06,11.06,0,0,0-5.464-6.025,3.221,3.221,0,0,1-1.962-3.082h-3.223v2.522c-4.484.981-7.986,5.6-7.986,11.209,0,6.025,4.063,11.069,9.247,11.349.7,5.464,4.764,9.668,9.668,9.668,5.464,0,9.808-5.044,9.808-11.349A11.555,11.555,0,0,0,321.918,252.25Z" transform="translate(-259.007 -235.669)"/>
              <g id="Group_262" data-name="Group 262" transform="translate(12.465 16.852)">
                <path id="Path_448" data-name="Path 448" class="cls-24" d="M311.027,252.866c0,.42-.14.56-.14.841s-.14.42-.14.7l-.42,1.261a12.422,12.422,0,0,1-1.121,2.382,13,13,0,0,1-3.783,4.063,21.171,21.171,0,0,1-2.522,1.261,9.046,9.046,0,0,1-2.662.56c-.841,0-1.681.14-2.522.14-.841-.14-1.681-.14-2.382-.28a29.064,29.064,0,0,1-8.267-3.223l-1.821-1.121a12.8,12.8,0,0,1-1.821-1.121l-3.5-2.522a1.087,1.087,0,0,1-.28-1.4.913.913,0,0,1,1.261-.28h.14a71.287,71.287,0,0,0,7.566,3.083,29.264,29.264,0,0,0,7.426,1.541,8.057,8.057,0,0,0,5.745-1.681,9.035,9.035,0,0,0,1.541-2.242,4.112,4.112,0,0,0,.42-1.4c0-.28.14-.42.14-.7v-.56A3.721,3.721,0,0,1,307.8,248.8,3.956,3.956,0,0,1,311.027,252.866Z" transform="translate(-279.496 -248.794)"/>
              </g>
              <path id="Path_449" data-name="Path 449" class="cls-24" d="M296.653,284.109c3.223,3.643,21.437,5.184,21.437,5.184,1.4-1.541-4.9-19.476-4.9-19.476s3.083-12.89,2.942-17.514a3.559,3.559,0,0,0-3.5-3.5H301a3.365,3.365,0,0,0-3.363,3.083c-.28,3.643,4.484,17.374,4.484,17.374S293.991,280.886,296.653,284.109Z" transform="translate(-260.364 -231.939)"/>
              <path id="Path_450" data-name="Path 450" class="cls-22" d="M303.73,328.032a.893.893,0,0,0,0,.841,1.094,1.094,0,0,0,.56.56c2.242.981,3.223.56,4.484-.28V318.224l-2.1-3.223a.847.847,0,0,0-1.541.56c.7,4.484,1.261,11.489-.981,11.91C304.01,327.331,303.87,327.752,303.73,328.032Z" transform="translate(-257.353 -205.525)"/>
              <path id="Path_451" data-name="Path 451" class="cls-49" d="M307.827,324.921a3.067,3.067,0,0,1-1.962-1.121c-4.624.42-6.866,1.962-6.866,3.223.14.28,8.127,0,11.069,0,.56,0,.841-.56.7-1.261l-.28-1.681C310.209,324.641,309.228,325.061,307.827,324.921Z" transform="translate(-259.208 -201.854)"/>
              <path id="Path_452" data-name="Path 452" class="cls-24" d="M336.344,287.2c-8.827,2.382-23.679,7.286-26.061,8.547-3.363,1.681-4.484,5.044-3.363,7.006.981,1.962,3.643,1.962,7.146.14,2.382-1.261,15.973-8.967,23.679-13.591C337.325,288.321,336.624,288.041,336.344,287.2Z" transform="translate(-256.199 -216.535)"/>
              <path id="Path_453" data-name="Path 453" class="cls-24" d="M336.991,289.2a.958.958,0,0,0,.981-.981c-.14-2.382-.841-3.083-2.242-3.923a62.528,62.528,0,0,1-11.069,5.464h0a1.91,1.91,0,0,0,2.662,2.522c3.643-1.962,7.986-4.063,8.967-3.083Z" transform="translate(-248.999 -217.698)"/>
              <path id="Path_454" data-name="Path 454" class="cls-49" d="M333.562,287.168a4,4,0,0,1-.14,2.242c2.382,3.923,4.764,5.184,5.885,4.624.14-.28-3.5-7.286-4.9-9.808a.853.853,0,0,0-1.4-.14l-1.4.981C332.3,285.067,333.141,285.767,333.562,287.168Z" transform="translate(-246.131 -217.905)"/>
              <path id="Path_455" data-name="Path 455" class="cls-22" d="M306.48,326.352c.981.56,2.242.42,3.223.981.28-9.107,0-24.1-.56-26.762-.7-3.783-2.942-6.445-5.184-6.165-2.242.42-3.5,3.783-2.8,7.566C301.716,304.494,304.378,317.525,306.48,326.352Z" transform="translate(-258.421 -213.653)"/>
              <path id="Path_456" data-name="Path 456" class="cls-22" d="M296.805,278.929c.28,5.044,4.764,36.43,8.687,36.149s5.6-31.946,5.324-36.99-3.643-8.827-7.566-8.687C299.467,269.681,296.525,273.885,296.805,278.929Z" transform="translate(-260.096 -223.676)"/>
              <path id="Path_457" data-name="Path 457" class="cls-24" d="M301,277.947c.14,5.044,5.745,33.487,9.528,33.347,3.923,0,5.324-28.723,5.184-33.767s-4.063-8.827-7.846-8.827C304.083,268.84,301,273.044,301,277.947Z" transform="translate(-258.405 -223.956)"/>
              <g id="Group_263" data-name="Group 263" transform="translate(44.696 11.397)">
                <path id="Path_458" data-name="Path 458" class="cls-24" d="M302.5,251.205l5.184-.56-1.541-5.745-3.5.42Z" transform="translate(-302.5 -244.9)"/>
              </g>
              <path id="Path_459" data-name="Path 459" class="cls-22" d="M302.64,245.32,306,244.9l.56,1.821c-.7.841-1.681,2.662-2.942,2.662a3.3,3.3,0,0,1-1.121-.28Z" transform="translate(-257.804 -233.503)"/>
              <path id="Path_460" data-name="Path 460" class="cls-24" d="M303.532,250.269c1.121,0,2.382-.56,4.063-2.1a5.171,5.171,0,0,0,1.681-3.363v-5.6h-8.687a14.334,14.334,0,0,0,0,5.885C301.15,247.467,302.551,250.269,303.532,250.269Z" transform="translate(-258.695 -235.79)"/>
              <rect id="Rectangle_55" data-name="Rectangle 55" class="cls-12" width="1.681" height="0.701" transform="translate(51.059 6.285) rotate(180)"/>
              <path id="Path_461" data-name="Path 461" class="cls-24" d="M305.7,243.062c0,1.121.56,1.962,1.121,1.962.7,0,1.4-1.4,1.4-2.522a1.25,1.25,0,0,0-1.4-1.4C306.12,241.1,305.7,241.941,305.7,243.062Z" transform="translate(-256.52 -235.028)"/>
              <path id="Path_462" data-name="Path 462" class="cls-12" d="M307.757,237.654h-2.942a4.112,4.112,0,0,1-2.242-.56,2.539,2.539,0,0,0-3.223.56c-.7.981-.981,2.382.981,3.643.981.7,2.382,0,3.363.28h2.8a1.59,1.59,0,0,1,1.541,1.681,1.053,1.053,0,0,0,.981.981h.14l.42-1.261,1.4-1.261v-.7A3.291,3.291,0,0,0,307.757,237.654Z" transform="translate(-259.278 -236.766)"/>
              <path id="Path_463" data-name="Path 463" class="cls-24" d="M279.24,254.988s2.942.841,3.5,0,.841-1.4-.42-2.242a10.144,10.144,0,0,0-4.344-1.541,6.894,6.894,0,0,0-3.643.841c-.7.841,1.681.841,2.8.841s2.382.28,2.242.7c-.14.56-2.382.28-2.662.841C276.158,254.848,279.24,254.988,279.24,254.988Z" transform="translate(-269.152 -230.981)"/>
              <path id="Path_464" data-name="Path 464" class="cls-11" d="M284.611,258.006a7.006,7.006,0,1,1-14.011,0,7.006,7.006,0,0,1,14.011,0Z" transform="translate(-270.6 -231.056)"/>
              <path id="Path_465" data-name="Path 465" class="cls-24" d="M279.38,259.289s2.942-.7,3.5,0c.56.841.7,1.541-.42,2.242a10.712,10.712,0,0,1-4.484,1.541,6.894,6.894,0,0,1-3.643-.841c-.7-.841,1.681-.841,2.8-.841s2.382-.14,2.242-.7-2.242-.28-2.662-.841C276.158,259.289,279.38,259.289,279.38,259.289Z" transform="translate(-269.152 -227.856)"/>
              <path id="Path_466" data-name="Path 466" class="cls-36" d="M315.178,270.9a2.519,2.519,0,0,1-.56-2.242c.841-3.783,2.662-13.171,2.522-16.674a3.139,3.139,0,0,0-3.223-3.082h-1.681a4.65,4.65,0,0,1-8.407,0h-1.681a10.73,10.73,0,0,1-.981,10.649,2.448,2.448,0,0,0-.42,2.382c.7,2.242,1.261,4.344,1.821,5.745a2.668,2.668,0,0,1-.7,2.662c-4.9,4.9-8.267,15.412-8.267,27.6a22.7,22.7,0,0,0,.14,3.083,2.732,2.732,0,0,0,2.662,2.522h23.679a2.634,2.634,0,0,0,2.662-2.522c0-.981.14-1.962.14-3.083C322.744,286.17,319.661,276.082,315.178,270.9Z" transform="translate(-261.374 -231.899)"/>
              <path id="Path_467" data-name="Path 467" class="cls-50" d="M312.99,261.848a87.787,87.787,0,0,0,1.4-9.247A17.335,17.335,0,0,1,300.1,264.229c1.4.56,3.5,1.261,5.324,1.962A5.843,5.843,0,0,0,312.99,261.848Z" transform="translate(-258.767 -230.414)"/>
              <path id="Path_468" data-name="Path 468" class="cls-12" d="M300.85,240.344c.56,1.121.28,1.962,4.344,2.942s5.044-.14,6.725,1.681c0,0-1.261-3.223-3.5-3.923s-6.025-.56-7.706-2.942A6.9,6.9,0,0,0,300.85,240.344Z" transform="translate(-258.536 -236.234)"/>
              <g id="Group_264" data-name="Group 264" transform="translate(11.602 17.526)">
                <path id="Path_469" data-name="Path 469" class="cls-24" d="M324.3,252.953a7.053,7.053,0,0,1-.7,2.242l-.841,1.681a14.772,14.772,0,0,1-.981,1.541c-.42.42-.7.981-1.121,1.4A13.31,13.31,0,0,1,318,262.061c-.42.28-.981.7-1.4.981l-1.4.841a37.859,37.859,0,0,1-12.05,3.363,67.468,67.468,0,0,1-11.91-.14c-1.962-.28-3.923-.42-5.745-.7-1.962-.42-3.783-.7-5.745-1.121a1.091,1.091,0,0,1-.841-1.261,1.2,1.2,0,0,1,.981-.841h5.745c1.821,0,3.783-.14,5.6-.14h1.4l1.4-.14,2.8-.28a15.127,15.127,0,0,0,2.662-.42c.841-.14,1.821-.28,2.662-.42a34.589,34.589,0,0,0,9.668-3.643l.981-.56.981-.7a8.8,8.8,0,0,0,1.681-1.541,3.715,3.715,0,0,1,.7-.841,2.931,2.931,0,0,0,.56-.841l.42-.841.14-.42v-.14h0v.14a3.62,3.62,0,0,1,4.063-3.082C323.324,249.03,324.585,250.851,324.3,252.953Z" transform="translate(-278.881 -249.275)"/>
              </g>
            </g>
            <circle id="Ellipse_16" data-name="Ellipse 16" class="cls-51" cx="13.171" cy="13.171" r="13.171" transform="translate(261.172)"/>
            <path id="Path_470" data-name="Path 470" class="cls-52" d="M5.464,0A5.464,5.464,0,1,1,0,5.464,5.464,5.464,0,0,1,5.464,0Z" transform="translate(268.878 7.706)"/>
          </g>
        </g>
      </g>
    </g>
    <g id="Mask_Group_4" data-name="Mask Group 4" class="cls-53">
      <g class="cls-54" transform="matrix(1, 0, 0, 1, 9524, -835)">
        <path id="project-workers-shadow-2" data-name="project-workers-shadow" class="cls-1" d="M-7015.125,181.127-7088.051,635c.064-.3.129-.621.194-.946a140,140,0,0,0,2.581-19.752,192.494,192.494,0,0,0,.151-19.789c-.53-13.2-2.167-26.643-3.75-39.644v-.01l0-.02c-.981-8.064-2-16.4-2.738-24.6a237.158,237.158,0,0,1-1.175-29.558,147.2,147.2,0,0,1,3.683-29.559c2.443-10.279,5.323-20.685,8.108-30.748,4.94-17.851,10.048-36.309,12.9-54.665a188.114,188.114,0,0,0,2.383-27.7,140.354,140.354,0,0,0-2.507-28.1,131.651,131.651,0,0,0-8.3-26.654,152.308,152.308,0,0,0-13.764-25.048,174.759,174.759,0,0,0-18.5-22.854,193.342,193.342,0,0,0-22.518-20.073,231.673,231.673,0,0,0-45.46-26.661,265.039,265.039,0,0,0-51.257-16.79c-14.673-3.212-29.918-4.936-44.661-6.6h-.009c-10.359-1.172-21.071-2.384-31.488-4.1a206.717,206.717,0,0,1-30.794-7.258,213.528,213.528,0,0,1-33.295-14.467c-10.625-5.616-21.07-11.933-31.17-18.042-11.756-7.11-23.908-14.459-36.429-20.757a276.848,276.848,0,0,0-61.32-21.814,292.923,292.923,0,0,0-65.549-7.445,281.467,281.467,0,0,0-44.838,3.565,264.142,264.142,0,0,0-63.672,18.658,275.634,275.634,0,0,0-55.548,32.416V0Z" transform="translate(7726.79)"/>
      </g>
    </g>
  </g>
</svg>
