<svg xmlns="http://www.w3.org/2000/svg" viewBox="0 0 30 30">
  <defs>
    <style>
      .cls-1 {
        fill: #fff;
      }

      .cls-2 {
        fill: #3a3a3a;
      }
    </style>
  </defs>
  <g id="icons8-bootstrap" transform="translate(-6 -6)">
    <path id="Path_192" data-name="Path 192" class="cls-1" d="M36,31.833A4.166,4.166,0,0,1,31.833,36H10.167A4.167,4.167,0,0,1,6,31.833V10.167A4.167,4.167,0,0,1,10.167,6H31.833A4.166,4.166,0,0,1,36,10.167Z"/>
    <path id="Path_193" data-name="Path 193" class="cls-2" d="M30.025,23.333a4.107,4.107,0,0,0-2.333-1.542,3.751,3.751,0,0,0,1.617-1.458A4.9,4.9,0,0,0,30,17.683a4.763,4.763,0,0,0-1.95-4.108A8.2,8.2,0,0,0,22.792,12H15V32h8.692a8.446,8.446,0,0,0,5.342-1.5,5.391,5.391,0,0,0,1.8-4.417A4.57,4.57,0,0,0,30.025,23.333ZM20,15.333h3.542a2.292,2.292,0,0,1,0,4.583H20Zm4.167,13.333H20v-5h4.167a2.5,2.5,0,0,1,0,5Z" transform="translate(-1.5 -1)"/>
  </g>
</svg>
