<svg xmlns="http://www.w3.org/2000/svg" viewBox="0 0 25.766 30">
  <defs>
    <style>
      .cls-1 {
        fill: #fff;
      }
    </style>
  </defs>
  <path id="drupal-brands" class="cls-1" d="M51.291,38.389c-1.49-.939-2.919-1.308-4.341-2.248A19.98,19.98,0,0,1,43.83,32.9c-.181,1.966-.772,2.764-1.476,3.321a19.108,19.108,0,0,1-3.59,2.167A14.1,14.1,0,0,0,32,50.185,12.878,12.878,0,0,0,45,62.9c6.824,0,12.762-4.965,12.762-12.48A14.594,14.594,0,0,0,51.291,38.389Zm.168,21.847c-1.349,1.349-6.046,1.926-7.83.282-.322-.322.02-.805.436-.805a5.877,5.877,0,0,0,3.456.892,6.449,6.449,0,0,0,3.657-.939C51.586,59.357,51.741,59.954,51.459,60.236ZM47.8,56.707a3.585,3.585,0,0,1,2.469.087c.275.188,1.08,1.261.416,1.59-.564.282-.081-1.053-1.778-1.053a2.341,2.341,0,0,0-1.792.738c-.47.4-.658.537-.819.315C45.9,57.834,47.366,56.888,47.8,56.707Zm6.207,1.161c-1.02-.067-3.053-3.274-4.361-3.321-2.073-.06-6.985,5.415-10.823,2.818-2.6-1.785-.98-7.032,3.476-7.059,3.321-.034,5.623,3.288,7.28,3.254,1.429-.02,4.147-2.8,5.489-2.8C58.336,50.755,56.632,58.089,54.008,57.868Z" transform="translate(-32 -32.9)"/>
</svg>
