<svg xmlns="http://www.w3.org/2000/svg" viewBox="0 0 30 32.308">
  <defs>
    <style>
      .cls-1 {
        fill: #fff;
      }
    </style>
  </defs>
  <path id="git-brands" class="cls-1" d="M16.2,45.68c0,1.825,1.168,4.327,2.993,4.94v.072c-1.356.6-1.731,3.649.072,4.745v.072C17.3,56.159,16,57.406,16,59.563c0,3.714,3.519,4.745,6.6,4.745,3.75,0,6.541-1.349,6.541-5.481,0-5.084-7.284-3.209-7.284-5.971,0-.974.519-1.349,1.421-1.536a5.769,5.769,0,0,0,4.868-5.928,4.344,4.344,0,0,0-.288-1.514,13.824,13.824,0,0,0,1.421-.4V39.839a10.8,10.8,0,0,1-3.93.851C21.466,38.454,16.2,40.784,16.2,45.68Zm6.325,11.812c1.226,0,2.971.216,2.971,1.8s-1.406,1.9-2.719,1.9c-1.248,0-3.123-.195-3.123-1.817S21.25,57.493,22.526,57.493ZM22.3,48.154c-1.587,0-2.257-.937-2.257-2.437,0-3.555,4.4-3.519,4.4-.036C24.438,47.144,23.861,48.154,22.3,48.154ZM46,51.724v3.534a7.05,7.05,0,0,1-3.281.707c-3.858,0-4.312-3.043-4.312-6.18V43.459h.036v-.072a5.766,5.766,0,0,0-1.731.072V40.034h1.731a17.408,17.408,0,0,0-.108-2.971h4.089a20.506,20.506,0,0,0-.108,2.971h3.678v3.425s-1.392-.072-3.678-.072v6.57c0,1.067.238,2.365,1.572,2.365A3.933,3.933,0,0,0,46,51.724ZM35.471,34.647A2.469,2.469,0,1,1,33.034,32,2.558,2.558,0,0,1,35.471,34.647Zm-.447,5.373c-.13,1.053-.115,14.409,0,15.707h-4c.115-1.305.13-14.639,0-15.707Z" transform="translate(-16 -32)"/>
</svg>
