<svg xmlns="http://www.w3.org/2000/svg" viewBox="0 0 30 29.25">
  <defs>
    <style>
      .cls-1 {
        fill: #fff;
      }
    </style>
  </defs>
  <path id="github-brands" class="cls-1" d="M10.034,31.552c0,.121-.139.218-.315.218-.2.018-.339-.079-.339-.218,0-.121.139-.218.315-.218C9.877,31.317,10.034,31.413,10.034,31.552ZM8.153,31.28c-.042.121.079.26.26.3a.284.284,0,0,0,.375-.121c.036-.121-.079-.26-.26-.315a.31.31,0,0,0-.375.139Zm2.673-.1c-.175.042-.3.157-.278.3.018.121.175.2.357.157s.3-.157.278-.278S11,31.159,10.827,31.177ZM14.806,8A14.5,14.5,0,0,0,0,22.758,15.164,15.164,0,0,0,10.252,37.226c.774.139,1.046-.339,1.046-.732,0-.375-.018-2.444-.018-3.714,0,0-4.234.907-5.123-1.8,0,0-.69-1.76-1.681-2.214,0,0-1.385-.95.1-.931a3.193,3.193,0,0,1,2.335,1.56,3.2,3.2,0,0,0,4.409,1.264,3.362,3.362,0,0,1,.968-2.038c-3.381-.375-6.792-.865-6.792-6.683a4.584,4.584,0,0,1,1.427-3.562,5.715,5.715,0,0,1,.157-4.107C8.341,13.873,11.25,15.9,11.25,15.9a14.289,14.289,0,0,1,7.6,0s2.909-2.032,4.173-1.633a5.712,5.712,0,0,1,.157,4.107,4.7,4.7,0,0,1,1.56,3.563c0,5.837-3.562,6.3-6.944,6.683a3.577,3.577,0,0,1,1.028,2.806c0,2.038-.018,4.56-.018,5.056,0,.393.278.871,1.046.732A15.024,15.024,0,0,0,30,22.758C30,14.369,23.2,8,14.806,8ZM5.879,28.861c-.079.06-.06.2.042.315.1.1.236.139.315.06.079-.06.06-.2-.042-.315C6.1,28.825,5.958,28.782,5.879,28.861Zm-.653-.49c-.042.079.018.175.139.236a.18.18,0,0,0,.26-.042c.042-.079-.018-.175-.139-.236C5.365,28.292,5.268,28.31,5.226,28.371Zm1.96,2.153c-.1.079-.06.26.079.375.139.139.315.157.393.06.079-.079.042-.26-.079-.375C7.446,30.446,7.264,30.427,7.185,30.524Zm-.69-.889c-.1.06-.1.218,0,.357s.26.2.339.139a.276.276,0,0,0,0-.375c-.085-.139-.242-.2-.339-.121Z" transform="translate(0 -8)"/>
</svg>
