<svg xmlns="http://www.w3.org/2000/svg" viewBox="0 0 30 27.857">
  <defs>
    <style>
      .cls-1 {
        fill: #fff;
      }
    </style>
  </defs>
  <path id="gitlab-brands" class="cls-1" d="M1.745,28.917,15,46.143.473,35.36a1.169,1.169,0,0,1-.418-1.289l1.69-5.155ZM6.163,18.675a.586.586,0,0,0-1.1,0L1.745,28.917H9.477ZM9.477,28.917,15,46.143l5.523-17.226Zm20.468,5.155-1.69-5.155L15,46.143,29.527,35.36a1.169,1.169,0,0,0,.418-1.289Zm-5-15.4a.586.586,0,0,0-1.1,0L20.522,28.917h7.732L24.941,18.675Z" transform="translate(0 -18.286)"/>
</svg>
