<svg xmlns="http://www.w3.org/2000/svg" viewBox="0 0 30 30.006">
  <defs>
    <style>
      .cls-1 {
        fill: #fff;
      }
    </style>
  </defs>
  <g id="icons8-jquery-filled" transform="translate(-3.005 -2.999)">
    <path id="Path_194" data-name="Path 194" class="cls-1" d="M21.323,3a.783.783,0,0,0-.213.064,5.189,5.189,0,0,0-1.38,1.324.217.217,0,0,0-.021.032,6.114,6.114,0,0,0-1.023,3.34,6.735,6.735,0,0,0,.525,2.653,8.189,8.189,0,0,0,4.611,4.419l.256.091c.011.005.112.037.128.04l.075.027a2.922,2.922,0,0,0,.322.091,9.489,9.489,0,0,0,1.564.186l.256,0a6.142,6.142,0,0,0,5.669-3.516,2.23,2.23,0,0,1,.114-.2s0,0,0-.005a.682.682,0,1,0-1.127-.767h0c-1,1.468-2.7,1.913-5.064,1.327a4.871,4.871,0,0,1-.538-.173,6.512,6.512,0,0,1-.655-.274,6.946,6.946,0,0,1-1.153-.722c-2.078-1.612-2.89-4.965-1.676-6.9A.682.682,0,0,0,21.323,3ZM15.282,4.364a.668.668,0,0,0-.44.154,16.156,16.156,0,0,0-2.131,2.27.176.176,0,0,1-.019.029,9.806,9.806,0,0,0-.357,9.84,12.277,12.277,0,0,0,.863,1.462l.093.133a6.357,6.357,0,0,0,.938,1.164c.131.149.272.293.41.432l.067.069.056.056c.141.136.285.274.434.408h0a.288.288,0,0,0,.04.04c.168.149.338.29.565.469l.061.045c.176.141.354.274.538.4l.056.04c.064.043.128.083.192.128l.064.043.075.048c.136.091.269.173.458.282.123.075.253.149.338.192l.17.093.208.109.069.032c.136.069.277.136.418.2l.216.1c.141.061.285.12.461.186l.08.029c.005.005.072.029.077.032.128.045.258.091.389.133l.3.1a3.283,3.283,0,0,0,.511.141,16.479,16.479,0,0,0,2.688.234l.3,0a9.969,9.969,0,0,0,9.5-6.625.681.681,0,0,0-1.217-.575,8.32,8.32,0,0,1-9.188,2.994c-.17-.043-.336-.091-.541-.157-.035-.011-.064-.021-.12-.043-.12-.037-.237-.077-.37-.128l-.189-.072c-.109-.043-.218-.085-.352-.144l-.088-.04c-.163-.069-.32-.147-.461-.216l-.389-.2c-.088-.043-.165-.091-.285-.163l-.067-.037-.067-.04c-.1-.059-.2-.12-.288-.184l-.064-.04c-.005,0-.059-.04-.064-.045L19,17.589c-.165-.117-.328-.24-.517-.389l-.075-.061a10.951,10.951,0,0,1-3.668-5.29,8.47,8.47,0,0,1,1.127-6.462.679.679,0,0,0-.149-.86A.671.671,0,0,0,15.282,4.364Zm-7.5,2.046a.687.687,0,0,0-.458.176A14.969,14.969,0,0,0,4.935,9.443C2.149,13.5,2.687,19.806,4.6,23.66c.037.08.077.157.117.234l.027.043a1.35,1.35,0,0,0,.088.173.658.658,0,0,0,.067.123c.032.067.064.125.123.226l.218.376c.032.051.064.1.075.123.043.069.088.141.133.213l.107.17a1.484,1.484,0,0,0,.085.123c.107.165.213.33.33.488a.116.116,0,0,0,.016.019l.043.059c.1.139.194.272.282.381L6.7,26.9c.005.005.048.056.051.061l.056.064c.117.144.242.288.368.426l.056.061c.12.131.242.261.37.4l.123.117c.1.107.2.21.309.309,0,0,.051.051.051.051l.107.1c.128.123.261.245.362.33.005.008.1.091.109.1.125.112.25.218.378.322l.653.517.349.253c.043.032.088.064.133.093a.459.459,0,0,0,.053.04l.49.328c.178.117.357.226.575.357l.117.067c.136.08.274.16.4.229.077.043.154.08.221.114.093.051.194.107.349.181.013.008.123.061.136.067.155.077.312.149.509.237,0,0,.064.032.064.032.181.077.357.152.589.245.037.016.075.029.083.032.165.064.338.128.479.178l.1.04c.189.064.376.125.615.2.04.013.083.027.088.027l.136.043a4.91,4.91,0,0,0,.509.139A20.577,20.577,0,0,0,19.368,33h0a13.672,13.672,0,0,0,12.912-7.941.683.683,0,0,0-1.183-.655c-2.507,3.3-7.235,4.526-12.648,3.282-.131-.032-.264-.069-.394-.109L17.8,27.5c-.173-.053-.346-.112-.514-.17l-.08-.029c-.149-.051-.3-.109-.429-.16l-.149-.059c-.165-.067-.33-.136-.49-.208l-.093-.04c-.144-.067-.282-.131-.421-.2-.011-.005-.12-.059-.131-.061-.1-.048-.192-.1-.314-.165l-.557-.3a1.92,1.92,0,0,0-.17-.1c-.168-.1-.341-.208-.511-.317-.04-.024-.075-.051-.141-.1-.117-.075-.232-.152-.4-.269l-.067-.048c-.114-.08-.226-.165-.32-.234-.059-.043-.117-.091-.213-.162s-.17-.131-.25-.194l-.149-.123c-.125-.1-.242-.208-.365-.312a.343.343,0,0,0-.048-.04c-.136-.125-.274-.25-.44-.408l-.482-.479c-.117-.12-.234-.242-.368-.389s-.24-.272-.4-.458l-.288-.352a1.836,1.836,0,0,0-.117-.155c-.1-.133-.2-.264-.3-.4C6.949,17.92,6.257,10.291,8.324,7.5a.681.681,0,0,0-.546-1.087Z" transform="translate(0)"/>
  </g>
</svg>
