<svg xmlns="http://www.w3.org/2000/svg" viewBox="0 0 30 30">
  <defs>
    <style>
      .cls-1 {
        fill: #fff;
      }
    </style>
  </defs>
  <path id="js-brands" class="cls-1" d="M0,32V62H30V32ZM16.326,55.4c0,2.92-1.714,4.252-4.212,4.252a4.38,4.38,0,0,1-4.232-2.578l2.3-1.386c.442.783.844,1.446,1.815,1.446.924,0,1.513-.362,1.513-1.775V45.775h2.819ZM23,59.65a5.41,5.41,0,0,1-5.136-2.879l2.3-1.326a3.076,3.076,0,0,0,2.779,1.714c1.165,0,1.915-.583,1.915-1.393,0-.964-.763-1.306-2.056-1.875l-.7-.3c-2.036-.864-3.382-1.955-3.382-4.252,0-2.116,1.614-3.723,4.125-3.723a4.152,4.152,0,0,1,4,2.257l-2.2,1.406a1.917,1.917,0,0,0-1.815-1.205,1.224,1.224,0,0,0-1.346,1.205c0,.844.522,1.185,1.734,1.714l.7.3c2.4,1.025,3.743,2.076,3.743,4.433,0,2.531-2,3.924-4.667,3.924Z" transform="translate(0 -32)"/>
</svg>
