<svg xmlns="http://www.w3.org/2000/svg" viewBox="0 0 50 30.624">
  <defs>
    <style>
      .cls-1 {
        fill: #fff;
      }
    </style>
  </defs>
  <path id="node-brands" class="cls-1" d="M24.711,90.638a1.032,1.032,0,0,1-.477-.125l-1.5-.891c-.227-.125-.117-.172-.039-.2a2.736,2.736,0,0,0,.68-.312.134.134,0,0,1,.109.008l1.156.688a.149.149,0,0,0,.141,0L29.3,87.2a.148.148,0,0,0,.07-.125V81.865a.133.133,0,0,0-.07-.125l-4.516-2.6a.149.149,0,0,0-.141,0l-4.516,2.6a.141.141,0,0,0-.07.125v5.211a.145.145,0,0,0,.07.117l1.234.711c.672.336,1.086-.063,1.086-.453V82.3a.132.132,0,0,1,.133-.133h.57a.132.132,0,0,1,.133.133v5.148a1.246,1.246,0,0,1-1.336,1.406,1.936,1.936,0,0,1-1.039-.281l-1.187-.68a.965.965,0,0,1-.477-.82V81.865a.939.939,0,0,1,.477-.82l4.516-2.609a.969.969,0,0,1,.945,0L29.7,81.045a.965.965,0,0,1,.477.82v5.211a.939.939,0,0,1-.477.82L25.18,90.506a.865.865,0,0,1-.469.133ZM28.359,85.5c0-.977-.656-1.234-2.047-1.422-1.406-.188-1.547-.281-1.547-.609,0-.273.117-.633,1.156-.633.93,0,1.273.2,1.414.828a.125.125,0,0,0,.125.1h.586a.129.129,0,0,0,.094-.039.123.123,0,0,0,.031-.1c-.094-1.078-.8-1.578-2.25-1.578-1.289,0-2.055.547-2.055,1.453,0,.992.766,1.258,2,1.383,1.477.148,1.594.359,1.594.648,0,.508-.406.719-1.359.719-1.2,0-1.461-.3-1.547-.891a.129.129,0,0,0-.133-.109h-.586a.132.132,0,0,0-.133.133c0,.758.414,1.664,2.391,1.664,1.445,0,2.266-.563,2.266-1.547Zm4.258-3.914a.867.867,0,1,1-.867-.867A.86.86,0,0,1,32.617,81.584Zm-.141,0a.73.73,0,1,0-.734.734A.744.744,0,0,0,32.477,81.584Zm-.352.484h-.2c-.008-.047-.039-.3-.039-.3-.016-.055-.031-.086-.1-.086h-.172v.391h-.187v-.977h.336c.117,0,.344,0,.344.258a.229.229,0,0,1-.187.242c.133.008.141.094.164.219a1.089,1.089,0,0,0,.047.258Zm-.219-.687c0-.133-.094-.133-.141-.133h-.156v.273h.148A.132.132,0,0,0,31.906,81.381ZM10.727,70.248a.568.568,0,0,0-.289-.5L5.648,66.99a.618.618,0,0,0-.266-.078H5.336a.55.55,0,0,0-.266.078L.289,69.748a.577.577,0,0,0-.289.5L.008,77.67a.3.3,0,0,0,.141.25.275.275,0,0,0,.289,0l2.844-1.633a.587.587,0,0,0,.289-.5V72.318a.577.577,0,0,1,.289-.5l1.211-.7a.555.555,0,0,1,.289-.078.536.536,0,0,1,.289.078l1.211.7a.577.577,0,0,1,.289.5v3.469a.577.577,0,0,0,.289.5l2.844,1.633a.275.275,0,0,0,.289,0,.289.289,0,0,0,.141-.25l.016-7.422Zm26.188-8.1V75.927a.577.577,0,0,1-.289.5l-4.789,2.766a.587.587,0,0,1-.578,0l-4.789-2.766a.577.577,0,0,1-.289-.5V70.4a.577.577,0,0,1,.289-.5l4.789-2.766a.587.587,0,0,1,.578,0l1.2.687a.2.2,0,0,0,.3-.172V60.3a.287.287,0,0,1,.43-.25l2.852,1.594a.566.566,0,0,1,.3.5ZM33.32,72.217a.148.148,0,0,0-.07-.125l-1.641-.953a.165.165,0,0,0-.148,0l-1.641.953a.133.133,0,0,0-.07.125v1.9a.148.148,0,0,0,.07.125l1.641.945a.149.149,0,0,0,.141,0l1.641-.945a.133.133,0,0,0,.07-.125v-1.9Zm16.391-.055a.577.577,0,0,0,.289-.5V70.326a.577.577,0,0,0-.289-.5L44.953,67.06a.587.587,0,0,0-.578,0l-4.789,2.766a.577.577,0,0,0-.289.5v5.531a.568.568,0,0,0,.289.5l4.758,2.711a.572.572,0,0,0,.57,0l2.875-1.6a.287.287,0,0,0,0-.5L42.969,74.2a.289.289,0,0,1-.148-.25V72.217a.289.289,0,0,1,.148-.25l1.5-.867a.275.275,0,0,1,.289,0l1.5.867a.306.306,0,0,1,.148.25v1.359a.293.293,0,0,0,.437.25l2.867-1.664Zm-6.039.273a.119.119,0,0,0-.055.094v1.063a.108.108,0,0,0,.055.094l.922.531a.094.094,0,0,0,.109,0l.922-.531a.119.119,0,0,0,.055-.094V72.529a.108.108,0,0,0-.055-.094L44.7,71.9a.094.094,0,0,0-.109,0Zm-19.859,3.4v-5.5a.593.593,0,0,0-.3-.5l-4.773-2.75a.586.586,0,0,0-.578,0l-4.773,2.75a.583.583,0,0,0-.3.5v5.5a.6.6,0,0,0,.312.5l4.781,2.75a.568.568,0,0,0,.578,0l4.766-2.75a.581.581,0,0,0,.281-.367.688.688,0,0,0,.016-.133Zm-5.8-9.758-.062.039h.086Zm5.953,10.172-.031-.055v.07l.031-.016Z" transform="translate(0 -60.015)"/>
</svg>
