<svg xmlns="http://www.w3.org/2000/svg" viewBox="0 0 30 22.495">
  <defs>
    <style>
      .cls-1 {
        fill: #fff;
      }
    </style>
  </defs>
  <path id="sass-brands" class="cls-1" d="M25.8,28.914a6.151,6.151,0,0,0-2.718.633,5.772,5.772,0,0,1-.609-1.411,3.765,3.765,0,0,1-.052-1.186,9.985,9.985,0,0,1,.356-1.275c0-.052-.066-.309-.67-.314s-1.125.117-1.186.276a5.756,5.756,0,0,0-.248.9,21.723,21.723,0,0,1-1.832,3.529,3.638,3.638,0,0,1-.417-1.031,3.765,3.765,0,0,1-.052-1.186,9.983,9.983,0,0,1,.356-1.275c0-.052-.066-.309-.67-.314s-1.125.117-1.186.276-.127.534-.248.9-1.589,3.622-1.973,4.471c-.2.431-.366.778-.487,1.012s-.009.014-.019.042c-.1.2-.164.314-.164.314v0c-.08.15-.169.286-.211.286a1.944,1.944,0,0,1,.014-.933c.22-1.134.74-2.9.736-2.957,0-.033.1-.337-.342-.5a.552.552,0,0,0-.619.1c-.037,0-.066.094-.066.094s.473-1.987-.909-1.987a4.128,4.128,0,0,0-2.652,1.8c-.37.2-1.172.637-2.015,1.1l-.97.534c-.023-.023-.042-.047-.066-.07-1.678-1.79-4.775-3.055-4.644-5.459.047-.876.351-3.177,5.956-5.97,4.592-2.287,8.266-1.659,8.9-.262.909,1.992-1.964,5.7-6.734,6.233a3.592,3.592,0,0,1-3.013-.764c-.248-.276-.286-.291-.38-.239-.155.084-.056.328,0,.473a2.824,2.824,0,0,0,1.725,1.354,9.135,9.135,0,0,0,5.586-.553c2.9-1.115,5.15-4.222,4.489-6.823-.675-2.643-5.056-3.51-9.2-2.038A20.853,20.853,0,0,0,2.5,20.746c-2.282,2.137-2.648,4-2.5,4.775.534,2.76,4.339,4.56,5.862,5.891-.075.042-.145.08-.211.117-.764.38-3.665,1.9-4.391,3.5-.82,1.818.136,3.121.764,3.3A4.681,4.681,0,0,0,7.07,36.285a5.072,5.072,0,0,0,.45-4.663c0-.014-.014-.023-.019-.038.2-.117.4-.234.6-.351.389-.23.769-.44,1.1-.623a7.279,7.279,0,0,0-.394,2A4.148,4.148,0,0,0,9.7,35.5a.985.985,0,0,0,.722.234c.647,0,.937-.534,1.261-1.172.4-.778.75-1.682.75-1.682S12,35.325,13.2,35.325c.441,0,.881-.567,1.078-.858v0s.009-.019.033-.056c.047-.07.07-.112.07-.112v-.014c.178-.3.567-1,1.153-2.156.759-1.49,1.486-3.351,1.486-3.351a9.43,9.43,0,0,0,.291,1.209,11.32,11.32,0,0,0,.628,1.406c-.178.244-.286.384-.286.384a.015.015,0,0,0,0,.009c-.141.187-.3.389-.464.586a16.477,16.477,0,0,0-1.406,1.762.479.479,0,0,0,.131.642,1.14,1.14,0,0,0,.736.117,3.249,3.249,0,0,0,1.1-.253,3.854,3.854,0,0,0,.947-.5,2.116,2.116,0,0,0,.909-1.865,3.881,3.881,0,0,0-.342-1.321c.052-.075.108-.155.159-.234a24.906,24.906,0,0,0,1.645-2.84,9.43,9.43,0,0,0,.291,1.209,8.27,8.27,0,0,0,.534,1.2,5.149,5.149,0,0,0-1.6,2.067c-.347,1-.075,1.448.436,1.551a1.572,1.572,0,0,0,.8-.164,3.719,3.719,0,0,0,1.012-.52,2.265,2.265,0,0,0,1.115-1.856,3.486,3.486,0,0,0-.253-1.1,5.722,5.722,0,0,1,2.91-.337c2.61.3,3.121,1.935,3.023,2.615a1.721,1.721,0,0,1-.829,1.172c-.183.112-.239.155-.225.239.023.122.108.117.262.089a2.036,2.036,0,0,0,1.42-1.814c.075-1.593-1.457-3.346-4.171-3.332ZM5.683,35.7c-.862.942-2.071,1.3-2.591,1-.558-.323-.337-1.71.726-2.713a13.887,13.887,0,0,1,2.034-1.518c.127-.075.309-.187.534-.323.037-.023.056-.033.056-.033.042-.028.089-.052.136-.08a3.739,3.739,0,0,1-.9,3.669Zm6.3-4.283c-.3.736-.933,2.61-1.317,2.512-.328-.084-.53-1.514-.066-2.919a6.463,6.463,0,0,1,1.026-1.879c.473-.53.993-.7,1.115-.487a9.492,9.492,0,0,1-.759,2.774Zm5.2,2.484c-.127.066-.244.108-.3.075s.052-.112.052-.112.651-.7.909-1.017c.15-.187.323-.408.511-.651,0,.023,0,.047,0,.075A2.169,2.169,0,0,1,17.183,33.9Zm4.011-.914c-.094-.066-.08-.286.234-.97a3.65,3.65,0,0,1,.89-1.148,1.7,1.7,0,0,1,.089.506A1.652,1.652,0,0,1,21.194,32.982Z" transform="translate(0.026 -15.984)"/>
</svg>
