<svg xmlns="http://www.w3.org/2000/svg" viewBox="0 0 65.769 65.768">
  <defs>
    <style>
      .cls-1 {
        fill: none;
        stroke: #3a3a3a;
        stroke-miterlimit: 10;
        stroke-width: 0.756px;
      }
    </style>
  </defs>
  <g id="gear-lower" transform="translate(0.378 0.378)">
    <path id="Path_350" data-name="Path 350" class="cls-1" d="M90.313,183.668v-3.923a4.215,4.215,0,0,0-4.2-4.2h-.14a4.081,4.081,0,0,1-3.923-2.8c-.28-.7-.56-1.261-.841-1.821a4.266,4.266,0,0,1,.841-4.764l.14-.14a4.063,4.063,0,0,0,0-5.885l-2.8-2.8a4.063,4.063,0,0,0-5.885,0l-.14.14a4.31,4.31,0,0,1-4.764.841c-.56-.28-1.261-.56-1.821-.841a4.081,4.081,0,0,1-2.8-3.923v-.14a4.215,4.215,0,0,0-4.2-4.2H55.845a4.215,4.215,0,0,0-4.2,4.2v.14a4.081,4.081,0,0,1-2.8,3.923c-.7.28-1.261.56-1.821.841a4.266,4.266,0,0,1-4.764-.841l-.14-.14a4.063,4.063,0,0,0-5.885,0l-2.8,2.8a4.063,4.063,0,0,0,0,5.885l.14.14a4.31,4.31,0,0,1,.841,4.764c-.28.56-.56,1.261-.841,1.821a4.081,4.081,0,0,1-3.923,2.8H29.5a4.215,4.215,0,0,0-4.2,4.2v3.923a4.215,4.215,0,0,0,4.2,4.2h.14a4.081,4.081,0,0,1,3.923,2.8c.28.7.56,1.261.841,1.821a4.266,4.266,0,0,1-.841,4.764l-.14.14a4.063,4.063,0,0,0,0,5.885l2.8,2.8a4.063,4.063,0,0,0,5.885,0l.14-.14a4.31,4.31,0,0,1,4.764-.841c.56.28,1.261.56,1.821.841a4.081,4.081,0,0,1,2.8,3.923v.14a4.215,4.215,0,0,0,4.2,4.2h3.923a4.215,4.215,0,0,0,4.2-4.2v-.14a4.081,4.081,0,0,1,2.8-3.923c.7-.28,1.261-.56,1.821-.841a4.266,4.266,0,0,1,4.764.841l.14.14a4.063,4.063,0,0,0,5.885,0l2.8-2.8a4.063,4.063,0,0,0,0-5.885l-.14-.14a4.31,4.31,0,0,1-.841-4.764c.28-.56.56-1.261.841-1.821a4.081,4.081,0,0,1,3.923-2.8h.14A4.215,4.215,0,0,0,90.313,183.668Z" transform="translate(-25.3 -149.2)"/>
    <circle id="Ellipse_14" data-name="Ellipse 14" class="cls-1" cx="16.814" cy="16.814" r="16.814" transform="translate(15.693 15.693)"/>
  </g>
</svg>
