<svg xmlns="http://www.w3.org/2000/svg" viewBox="0 0 138.315 138.316">
  <defs>
    <style>
      .cls-1 {
        fill: none;
        stroke: #3a3a3a;
        stroke-miterlimit: 10;
        stroke-width: 0.864px;
      }
    </style>
  </defs>
  <g id="gear-upper" transform="translate(0.433 0.432)">
    <path id="Path_349" data-name="Path 349" class="cls-1" d="M419.351,138.459v-8.267a8.79,8.79,0,0,0-8.827-8.827h-.28a9.081,9.081,0,0,1-8.407-5.885,33.033,33.033,0,0,0-1.681-3.923,8.981,8.981,0,0,1,1.681-10.088l.28-.28a8.712,8.712,0,0,0,0-12.47l-5.885-5.885a8.712,8.712,0,0,0-12.47,0l-.28.28A8.981,8.981,0,0,1,373.394,84.8c-1.261-.56-2.662-1.121-3.923-1.681a8.942,8.942,0,0,1-5.885-8.407v-.28a8.79,8.79,0,0,0-8.827-8.827h-8.267a8.79,8.79,0,0,0-8.827,8.827v.28a9.081,9.081,0,0,1-5.885,8.407,33.037,33.037,0,0,0-3.923,1.681,8.981,8.981,0,0,1-10.088-1.681l-.28-.28a8.712,8.712,0,0,0-12.47,0l-5.885,5.885a8.712,8.712,0,0,0,0,12.47l.28.28a8.981,8.981,0,0,1,1.681,10.088c-.56,1.261-1.121,2.662-1.681,3.923a8.942,8.942,0,0,1-8.407,5.885h-.28a8.79,8.79,0,0,0-8.827,8.827v8.267a8.79,8.79,0,0,0,8.827,8.827h.28a9.081,9.081,0,0,1,8.407,5.885,33.041,33.041,0,0,0,1.681,3.923,8.981,8.981,0,0,1-1.681,10.088l-.28.28a8.712,8.712,0,0,0,0,12.47l5.885,5.885a8.712,8.712,0,0,0,12.47,0l.28-.28a8.981,8.981,0,0,1,10.088-1.681c1.261.56,2.662,1.121,3.923,1.681a8.942,8.942,0,0,1,5.885,8.407v.28a8.79,8.79,0,0,0,8.827,8.827h8.267a8.79,8.79,0,0,0,8.827-8.827v-.28a9.081,9.081,0,0,1,5.885-8.407,33.031,33.031,0,0,0,3.923-1.681,8.981,8.981,0,0,1,10.088,1.681l.28.28a8.712,8.712,0,0,0,12.47,0l5.885-5.885a8.712,8.712,0,0,0,0-12.47l-.28-.28a8.981,8.981,0,0,1-1.681-10.088c.56-1.261,1.121-2.662,1.681-3.923a8.942,8.942,0,0,1,8.407-5.885h.28A8.79,8.79,0,0,0,419.351,138.459Z" transform="translate(-281.9 -65.6)"/>
    <circle id="Ellipse_13" data-name="Ellipse 13" class="cls-1" cx="35.729" cy="35.729" r="35.729" transform="translate(18.29 68.758) rotate(-45)"/>
  </g>
</svg>
