<svg xmlns="http://www.w3.org/2000/svg" xmlns:xlink="http://www.w3.org/1999/xlink" viewBox="0 0 712.274 635">
  <defs>
    <style>
      .cls-1 {
        fill: #f8f8f8;
      }

      .cls-10, .cls-2, .cls-9 {
        fill: none;
      }

      .cls-2 {
        stroke: #707070;
      }

      .cls-3 {
        clip-path: url(#clip-path);
      }

      .cls-4 {
        fill: #3a3a3a;
      }

      .cls-5, .cls-6 {
        opacity: 0.5;
      }

      .cls-5 {
        fill: url(#linear-gradient);
      }

      .cls-7 {
        fill: url(#linear-gradient-2);
      }

      .cls-8 {
        fill: url(#linear-gradient-3);
      }

      .cls-10, .cls-9 {
        stroke: #3a3a3a;
        stroke-miterlimit: 10;
      }

      .cls-9 {
        stroke-width: 0.756px;
      }

      .cls-10 {
        stroke-width: 0.864px;
      }

      .cls-11 {
        clip-path: url(#clip-path-2);
      }

      .cls-12 {
        clip-path: url(#clip-path-3);
      }

      .cls-13 {
        filter: url(#project-workers-shadow);
      }
    </style>
    <clipPath id="clip-path">
      <path id="background_wrapper" class="cls-1" d="M0,0H712.274V635H0Z"/>
    </clipPath>
    <linearGradient id="linear-gradient" x1="0.5" y1="1.006" x2="0.5" y2="-0.2" gradientUnits="objectBoundingBox">
      <stop offset="0" stop-color="#fff"/>
      <stop offset="1"/>
    </linearGradient>
    <linearGradient id="linear-gradient-2" x1="0.499" y1="-0.263" x2="0.499" y2="1.838" xlink:href="#linear-gradient"/>
    <linearGradient id="linear-gradient-3" x1="0.5" y1="-0.128" x2="0.5" y2="1.645" xlink:href="#linear-gradient"/>
    <clipPath id="clip-path-2">
      <rect id="Rectangle_56" data-name="Rectangle 56" class="cls-2" width="712" height="635" transform="translate(9524 -835)"/>
    </clipPath>
    <clipPath id="clip-path-3">
      <rect id="Rectangle_59" data-name="Rectangle 59" class="cls-2" width="712" height="635" transform="translate(11508 -1837)"/>
    </clipPath>
    <filter id="project-workers-shadow" x="-18.5" y="-3.5" width="720.025" height="656" filterUnits="userSpaceOnUse">
      <feOffset dx="-8" dy="7" input="SourceAlpha"/>
      <feGaussianBlur stdDeviation="3.5" result="blur"/>
      <feFlood flood-opacity="0.302"/>
      <feComposite operator="in" in2="blur"/>
      <feComposite in="SourceGraphic"/>
    </filter>
  </defs>
  <g id="project-workers-aniready2" transform="translate(-11508 2706)">
    <g id="project-workers-aniready2-2" data-name="project-workers-aniready2" transform="translate(1984 -1871)">
      <g id="project-workers" class="cls-3" transform="translate(9524 -835)">
        <g id="background_helpers">
          <g id="background_bubble" transform="translate(-103.225 91.35)">
            <path id="Path_334" data-name="Path 334" class="cls-4" d="M738.4,438.886c-1.88-19.636-2.089-39.48,2.507-59.116,11.071-46.583,30.289-92.747,20.889-141.21-7.1-36.347-30.707-69.978-63.085-94.627C671.142,123.044,637.3,108.212,602,100.484S529.514,93.8,495.047,82.519C458.074,70.4,428.2,46.381,394.153,29.252,342.558,3.558,280.517-5.842,222.446,3.558,123.014,19.434,44.262,91.083,13.138,171.924-6.5,222.684-4.827,280.547,23.164,328.8c13.16,22.769,32.378,45.956,27.156,70.6C41.756,440.139,1.44,456.015,2.067,501.344c.418,43.031,32.8,75.2,76.036,87.734,40.734,11.7,84.392,12.116,127.005,12.324l271.348,1.88c56.609.418,113.636,5.849,170.245,3.342,29.453-1.462,60.787-8.982,78.752-29.036,8.982-10.027,14.2-22.351,16.711-34.885C749.267,508.237,741.538,473.561,738.4,438.886Z" transform="translate(0 0)"/>
            <path id="Path_335" data-name="Path 335" class="cls-5" d="M672.931,143.933c-27.573-20.889-61.414-35.72-96.716-43.449S503.73,93.8,469.263,82.519C432.289,70.4,402.418,46.381,368.369,29.252,316.773,3.558,254.733-5.842,196.661,3.558,124.8,15.047,63.6,55.781,23.7,107.795q5.013,4.387,10.653,8.773c27.573,20.889,61.414,35.72,96.716,43.449s72.485,6.684,106.952,17.965c36.765,12.116,66.636,36.138,100.894,53.267,51.6,25.693,113.636,35.094,171.708,25.9,71.858-11.489,133.063-52.223,172.961-104.236A135.115,135.115,0,0,0,672.931,143.933ZM378.4,97.559c-7.027,5.685-16.2,7.789-25.77,7.114-15.023-1.057-30.638-9.6-37.524-21.945-15.458-27.365,15.249-48.88,40.525-42.822C379.231,45.754,403.253,77.3,378.4,97.559Z" transform="translate(25.785 0)"/>
            <g id="Group_237" data-name="Group 237" class="cls-6" transform="translate(93.193 305.196)">
              <path id="Path_336" data-name="Path 336" class="cls-7" d="M111.418,146.1c-15.249,0-30.916,4.8-42.4,13.16-31.542,23.187-36.765,80,10.027,88.778a49.786,49.786,0,0,0,9.609.836c32.169,0,68.725-27.156,69.56-59.951.627-30.08-22.142-42.822-46.791-42.822" transform="translate(-44.624 -146.1)"/>
            </g>
            <g id="Group_238" data-name="Group 238" class="cls-6" transform="translate(102.961 436.169)">
              <path id="Path_337" data-name="Path 337" class="cls-8" d="M594.5,381.344c0-39.062-3.76-98.178-60.369-110.294-40.107-8.565-81.049,19.636-121.365,11.7-23.813-4.6-43.031-21.933-62.667-36.138-51.6-36.974-118.858-47.209-179.854-29.036C83.558,243.476,49.3,320.557,49.3,381.344Z" transform="translate(-49.3 -208.799)"/>
            </g>
          </g>
          <g id="background_helpers-2" data-name="background_helpers" transform="translate(-0.372 177)">
            <g id="Group_244" data-name="Group 244" transform="translate(0.372 23.418)">
              <g id="Group_239" data-name="Group 239" transform="translate(11.529 266.776)">
                <path id="Path_338" data-name="Path 338" class="cls-9" d="M105.559,244.231H103.6a26.012,26.012,0,0,0,.841-6.725c0-17.234-15.973-31.105-35.589-31.105-19.336,0-35.169,13.591-35.589,30.4C18.688,243.39,8.6,257.4,8.6,273.795c0,22.558,19.476,40.913,43.435,40.913A45.4,45.4,0,0,0,79.357,305.6a47.718,47.718,0,0,0,26.341,7.566c23.259,0,42.034-15.412,42.034-34.468C147.593,259.643,128.817,244.231,105.559,244.231Z" transform="translate(-8.6 -206.4)"/>
                <line id="Line_34" data-name="Line 34" class="cls-9" y2="90.653" transform="translate(70.617 54.224)"/>
                <path id="Path_339" data-name="Path 339" class="cls-9" d="M29.2,254.8l41.754,20.316,34.328-19.2" transform="translate(-0.337 -186.985)"/>
                <path id="Path_340" data-name="Path 340" class="cls-9" d="M45.1,229.1l19.476,36.009L80.409,249.7" transform="translate(6.041 -197.294)"/>
              </g>
              <path id="Path_341" data-name="Path 341" class="cls-4" d="M98.053,108.576h0a3.016,3.016,0,0,1-2.8-4.063,11.254,11.254,0,0,0,.42-5.745A11.893,11.893,0,0,0,83.9,89.1H20.711a11.7,11.7,0,1,0-.28,23.4h.7a8.494,8.494,0,0,1,8.407,8.687v.14h0a12.558,12.558,0,0,0,12.61,12.61H98.193a12.558,12.558,0,0,0,12.61-12.61h0A12.8,12.8,0,0,0,98.053,108.576Z" transform="translate(3.008 11.922)"/>
              <g id="Group_240" data-name="Group 240" transform="translate(422.587 218.017)">
                <path id="Path_342" data-name="Path 342" class="cls-10" d="M412.56,246.86c-1.681-1.681-5.324-1.681-9.388-.981a6.737,6.737,0,0,1-6.866-10.228c6.445-10.509,12.891-22.839,9.528-26.2-3.083-3.082-15.272.841-23.4,3.923a6.764,6.764,0,0,1-9.107-5.044c-2.522-12.61-7.846-35.729-14.011-35.729s-11.629,23.119-14.011,35.869a6.8,6.8,0,0,1-8.967,5.044c-8.687-3.223-22.138-7.426-25.5-4.063s3.083,15.693,9.528,26.2a6.757,6.757,0,0,1-6.866,10.228c-4.063-.7-7.706-.7-9.388.981-6.866,6.866,3.363,28.3,22.839,47.779,3.363,3.363,6.866,6.445,10.228,9.247a6.7,6.7,0,0,1,2.382,5.885c-.28,3.363.28,6.025,2.1,7.706,2.8,2.8,7.846,2.8,14.292.56a6.188,6.188,0,0,1,4.484,0c6.445,2.242,11.489,2.242,14.292-.56,1.681-1.681,2.382-4.344,2.1-7.706a6.845,6.845,0,0,1,2.382-5.885c3.363-2.8,6.866-5.885,10.228-9.247C409.2,275.163,419.425,253.726,412.56,246.86Z" transform="translate(-301.975 -172.6)"/>
                <line id="Line_35" data-name="Line 35" class="cls-10" y2="158.328" transform="translate(56.361 35.729)"/>
                <path id="Path_343" data-name="Path 343" class="cls-10" d="M369.554,213.6l-21.3,21.3L327.1,213.6" transform="translate(-291.897 -156.153)"/>
                <path id="Path_344" data-name="Path 344" class="cls-10" d="M369.554,242.1l-21.3,21.157L327.1,242.1" transform="translate(-291.897 -144.721)"/>
              </g>
              <path id="Path_345" data-name="Path 345" class="cls-4" d="M449.318,304.493A16.414,16.414,0,0,0,432.925,288.1H229.2v32.646H432.925a16.12,16.12,0,0,0,16.393-16.253Z" transform="translate(91.419 91.748)"/>
              <g id="Group_243" data-name="Group 243" transform="translate(0 162.493)">
                <path id="Path_351" data-name="Path 351" class="cls-9" d="M45.528,159.773l.42-2.662a2.86,2.86,0,0,0-2.522-3.223h-.14a3,3,0,0,1-2.522-2.242c-.14-.42-.28-.981-.42-1.4a2.86,2.86,0,0,1,.981-3.223h.14a2.906,2.906,0,0,0,.56-4.063l-1.681-2.1a2.906,2.906,0,0,0-4.063-.56h-.14a2.959,2.959,0,0,1-3.363.14c-.42-.28-.841-.42-1.261-.7a2.928,2.928,0,0,1-1.541-2.942v-.14a2.86,2.86,0,0,0-2.522-3.223l-2.662-.42a2.86,2.86,0,0,0-3.223,2.522v.14a3,3,0,0,1-2.242,2.522c-.42.14-.981.28-1.4.42a2.86,2.86,0,0,1-3.223-.981v-.14a2.906,2.906,0,0,0-4.063-.56l-2.382,1.4A2.906,2.906,0,0,0,7.7,142.4v.14a2.959,2.959,0,0,1,.14,3.363c-.28.42-.42.841-.7,1.261A2.928,2.928,0,0,1,4.194,148.7h-.14a2.86,2.86,0,0,0-3.223,2.522l-.42,2.662a2.86,2.86,0,0,0,2.522,3.223h.14A3,3,0,0,1,5.6,159.353c.14.42.28.981.42,1.4a2.86,2.86,0,0,1-.981,3.223h-.14a2.906,2.906,0,0,0-.56,4.063l1.681,2.1a2.906,2.906,0,0,0,4.063.56h.14a2.959,2.959,0,0,1,3.363-.14c.42.28.841.42,1.261.7a2.928,2.928,0,0,1,1.541,2.942v.14a2.86,2.86,0,0,0,2.522,3.223l2.662.42a2.86,2.86,0,0,0,3.223-2.522v-.14a3,3,0,0,1,2.242-2.522c.42-.14.981-.28,1.4-.42a2.86,2.86,0,0,1,3.223.981v.14a2.906,2.906,0,0,0,4.063.56l2.1-1.681a2.906,2.906,0,0,0,.56-4.063v-.14a2.959,2.959,0,0,1-.14-3.363c.28-.42.42-.841.7-1.261a2.928,2.928,0,0,1,2.942-1.541h.14A2.63,2.63,0,0,0,45.528,159.773Z" transform="translate(-0.372 -132.972)"/>
                <circle id="Ellipse_15" data-name="Ellipse 15" class="cls-9" cx="11.77" cy="11.77" r="11.77" transform="matrix(0.192, -0.981, 0.981, 0.192, 9.012, 31.859)"/>
              </g>
              <path id="Path_352" data-name="Path 352" class="cls-4" d="M404.353,316.554H372.127a8.79,8.79,0,0,1-8.827-8.827h0a8.79,8.79,0,0,1,8.827-8.827h32.226a8.79,8.79,0,0,1,8.827,8.827h0A8.7,8.7,0,0,1,404.353,316.554Z" transform="translate(145.211 96.08)"/>
            </g>
          </g>
        </g>
      </g>
    </g>
    <g id="project-workers-shadow-2" data-name="project-workers-shadow" class="cls-12" transform="translate(0 -869)">
      <g class="cls-13" transform="matrix(1, 0, 0, 1, 11508, -1837)">
        <path id="project-workers-shadow-3" data-name="project-workers-shadow" class="cls-1" d="M-7027.77,181.127-7088.051,635c.064-.3.129-.621.194-.946a140,140,0,0,0,2.581-19.752,192.494,192.494,0,0,0,.151-19.789c-.53-13.2-2.167-26.643-3.75-39.644v-.01l0-.02c-.981-8.064-2-16.4-2.738-24.6a237.158,237.158,0,0,1-1.175-29.558,147.2,147.2,0,0,1,3.683-29.559c2.443-10.279,5.323-20.685,8.108-30.748,4.94-17.851,10.048-36.309,12.9-54.665a188.114,188.114,0,0,0,2.383-27.7,140.354,140.354,0,0,0-2.507-28.1,131.651,131.651,0,0,0-8.3-26.654,152.308,152.308,0,0,0-13.764-25.048,174.759,174.759,0,0,0-18.5-22.854,193.342,193.342,0,0,0-22.518-20.073,231.673,231.673,0,0,0-45.46-26.661,265.039,265.039,0,0,0-51.257-16.79c-14.673-3.212-29.918-4.936-44.661-6.6h-.009c-10.359-1.172-21.071-2.384-31.488-4.1a206.717,206.717,0,0,1-30.794-7.258,213.528,213.528,0,0,1-33.295-14.467c-10.625-5.616-21.07-11.933-31.17-18.042-11.756-7.11-23.908-14.459-36.429-20.757a276.848,276.848,0,0,0-61.32-21.814,292.923,292.923,0,0,0-65.549-7.445,281.467,281.467,0,0,0-44.838,3.565,264.142,264.142,0,0,0-63.672,18.658,275.634,275.634,0,0,0-55.548,32.416V0Z" transform="translate(7726.79)"/>
      </g>
    </g>
  </g>
</svg>
