<svg xmlns="http://www.w3.org/2000/svg" xmlns:xlink="http://www.w3.org/1999/xlink" viewBox="0 0 712 635">
  <defs>
    <style>
      .cls-1 {
        fill: none;
        stroke: #707070;
      }

      .cls-2 {
        clip-path: url(#clip-path);
      }

      .cls-3 {
        fill: #f8f8f8;
      }

      .cls-4 {
        filter: url(#project-workers-shadow);
      }
    </style>
    <clipPath id="clip-path">
      <rect id="Rectangle_58" data-name="Rectangle 58" class="cls-1" width="712" height="635" transform="translate(11508 -1837)"/>
    </clipPath>
    <filter id="project-workers-shadow" x="-18.5" y="-3.5" width="732.67" height="656.001" filterUnits="userSpaceOnUse">
      <feOffset dx="-8" dy="7" input="SourceAlpha"/>
      <feGaussianBlur stdDeviation="3.5" result="blur"/>
      <feFlood flood-opacity="0.302"/>
      <feComposite operator="in" in2="blur"/>
      <feComposite in="SourceGraphic"/>
    </filter>
  </defs>
  <g id="project-workers-shadow-2" data-name="project-workers-shadow" class="cls-2" transform="translate(-11508 1837)">
    <g class="cls-4" transform="matrix(1, 0, 0, 1, 11508, -1837)">
      <path id="project-workers-shadow-3" data-name="project-workers-shadow" class="cls-3" d="M-7015.125,181.127-7088.051,635c.064-.3.129-.621.194-.946a140,140,0,0,0,2.581-19.752,192.494,192.494,0,0,0,.151-19.789c-.53-13.2-2.167-26.643-3.75-39.644v-.01l0-.02c-.981-8.064-2-16.4-2.738-24.6a237.158,237.158,0,0,1-1.175-29.558,147.2,147.2,0,0,1,3.683-29.559c2.443-10.279,5.323-20.685,8.108-30.748,4.94-17.851,10.048-36.309,12.9-54.665a188.114,188.114,0,0,0,2.383-27.7,140.354,140.354,0,0,0-2.507-28.1,131.651,131.651,0,0,0-8.3-26.654,152.308,152.308,0,0,0-13.764-25.048,174.759,174.759,0,0,0-18.5-22.854,193.342,193.342,0,0,0-22.518-20.073,231.673,231.673,0,0,0-45.46-26.661,265.039,265.039,0,0,0-51.257-16.79c-14.673-3.212-29.918-4.936-44.661-6.6h-.009c-10.359-1.172-21.071-2.384-31.488-4.1a206.717,206.717,0,0,1-30.794-7.258,213.528,213.528,0,0,1-33.295-14.467c-10.625-5.616-21.07-11.933-31.17-18.042-11.756-7.11-23.908-14.459-36.429-20.757a276.848,276.848,0,0,0-61.32-21.814,292.923,292.923,0,0,0-65.549-7.445,281.467,281.467,0,0,0-44.838,3.565,264.142,264.142,0,0,0-63.672,18.658,275.634,275.634,0,0,0-55.548,32.416V0Z" transform="translate(7726.79)"/>
    </g>
  </g>
</svg>
