<svg xmlns="http://www.w3.org/2000/svg" viewBox="0 0 494.765 458.634">
  <defs>
    <style>
      .cls-1 {
        fill: #636363;
      }

      .cls-2 {
        fill: #3a3a3a;
      }

      .cls-3 {
        fill: #fff;
      }

      .cls-4 {
        fill: #ffb81c;
      }

      .cls-5 {
        fill: #6c9baa;
      }

      .cls-32, .cls-5 {
        opacity: 0.4;
      }

      .cls-6 {
        fill: #ffd578;
      }

      .cls-10, .cls-11, .cls-12, .cls-29, .cls-30, .cls-31, .cls-33, .cls-38, .cls-42, .cls-43, .cls-7, .cls-8 {
        fill: none;
      }

      .cls-10, .cls-30, .cls-31, .cls-7 {
        stroke: #ffd578;
      }

      .cls-12, .cls-29, .cls-30, .cls-33, .cls-7, .cls-8 {
        stroke-linecap: round;
      }

      .cls-10, .cls-11, .cls-12, .cls-29, .cls-30, .cls-33, .cls-38, .cls-42, .cls-7, .cls-8 {
        stroke-miterlimit: 10;
      }

      .cls-7 {
        stroke-width: 2.804px;
      }

      .cls-33, .cls-38, .cls-42, .cls-43, .cls-8 {
        stroke: #fff;
      }

      .cls-8 {
        stroke-width: 1.872px;
      }

      .cls-9 {
        fill: #2e2e2e;
      }

      .cls-10, .cls-31 {
        stroke-width: 0.864px;
      }

      .cls-11, .cls-29 {
        stroke: #ffb81c;
      }

      .cls-11, .cls-12 {
        stroke-width: 1.728px;
      }

      .cls-12 {
        stroke: #3a3a3a;
      }

      .cls-13 {
        fill: #fa968c;
      }

      .cls-14 {
        fill: #fa870a;
      }

      .cls-15 {
        fill: #fab9af;
      }

      .cls-16 {
        fill: #46738c;
      }

      .cls-17 {
        fill: #1c9585;
      }

      .cls-18 {
        fill: #177d74;
      }

      .cls-19 {
        fill: #39ae96;
      }

      .cls-20 {
        fill: #ffa50a;
      }

      .cls-21 {
        fill: #3c5a73;
      }

      .cls-22 {
        fill: #ffa0be;
      }

      .cls-23 {
        fill: #f57a2f;
      }

      .cls-24 {
        fill: #0091c8;
      }

      .cls-25 {
        fill: #0073aa;
      }

      .cls-26 {
        fill: #00558c;
      }

      .cls-27 {
        fill: #ff8c46;
      }

      .cls-28 {
        fill: #ff82aa;
      }

      .cls-29, .cls-30, .cls-33, .cls-38 {
        stroke-width: 1.296px;
      }

      .cls-32 {
        fill: #a28f65;
      }

      .cls-34 {
        fill: #41b4e6;
      }

      .cls-35 {
        fill: #aac85a;
      }

      .cls-36 {
        fill: #82be50;
      }

      .cls-37 {
        fill: #a56941;
      }

      .cls-39 {
        fill: #fff0f2;
      }

      .cls-40 {
        fill: #965028;
      }

      .cls-41 {
        fill: #eb7731;
      }

      .cls-42, .cls-43 {
        stroke-width: 2px;
      }
    </style>
  </defs>
  <g id="project-workers-computer" transform="translate(-9524.716 658)">
    <path id="Path_353" data-name="Path 353" class="cls-1" d="M444.535,341.874a15.667,15.667,0,0,1-15.693,15.693H71.693A15.667,15.667,0,0,1,56,341.874V93.593A15.667,15.667,0,0,1,71.693,77.9h357.15a15.667,15.667,0,0,1,15.693,15.693Z" transform="translate(9545.942 -627.153)"/>
    <g id="Group_245" data-name="Group 245" transform="translate(9601.942 -549.253)">
      <path id="Path_354" data-name="Path 354" class="cls-2" d="M428.842,93.593V341.734H71.693V93.593h357.15m0-15.693H71.693A15.667,15.667,0,0,0,56,93.593V341.734a15.667,15.667,0,0,0,15.693,15.693h357.15a15.667,15.667,0,0,0,15.693-15.693V93.593A15.667,15.667,0,0,0,428.842,77.9Z" transform="translate(-56 -77.9)"/>
    </g>
    <g id="Group_246" data-name="Group 246" transform="translate(9656.306 -515.345)">
      <path id="Path_355" data-name="Path 355" class="cls-3" d="M373.346,314.232A10.644,10.644,0,0,1,362.7,324.881H105.449A10.644,10.644,0,0,1,94.8,314.232V112.749A10.644,10.644,0,0,1,105.449,102.1H362.557a10.644,10.644,0,0,1,10.649,10.649V314.232Z" transform="translate(-94.8 -102.1)"/>
    </g>
    <g id="Group_247" data-name="Group 247" transform="translate(9656.306 -515.345)">
      <path id="Path_356" data-name="Path 356" class="cls-4" d="M362.557,102.1H105.449A10.644,10.644,0,0,0,94.8,112.749v19.616H373.206V112.749A10.556,10.556,0,0,0,362.557,102.1Z" transform="translate(-94.8 -102.1)"/>
    </g>
    <path id="Path_357" data-name="Path 357" class="cls-5" d="M192.642,314.008l-91.074-26.341a5.111,5.111,0,0,1-3.5-6.445l40.073-138.853a5.111,5.111,0,0,1,6.445-3.5l91.074,26.341a5.111,5.111,0,0,1,3.5,6.445L199.087,310.5A5.339,5.339,0,0,1,192.642,314.008Z" transform="translate(9562.724 -602.789)"/>
    <path id="Path_358" data-name="Path 358" class="cls-6" d="M190.442,309.908,99.368,283.566a5.111,5.111,0,0,1-3.5-6.445l40.072-138.853a5.111,5.111,0,0,1,6.445-3.5l91.074,26.341a5.111,5.111,0,0,1,3.5,6.445L196.887,306.4A5.339,5.339,0,0,1,190.442,309.908Z" transform="translate(9561.842 -604.434)"/>
    <g id="Group_248" data-name="Group 248" transform="translate(9675.642 -459.58)">
      <path id="Path_359" data-name="Path 359" class="cls-6" d="M212.564,143.021V295.6h-102.7V143.021h102.7m1.261-1.121H108.6V296.866H213.825V141.9Z" transform="translate(-108.6 -141.9)"/>
    </g>
    <g id="Group_249" data-name="Group 249" transform="translate(9898.843 -506.518)">
      <line id="Line_36" data-name="Line 36" class="cls-7" x2="17.374"/>
      <line id="Line_37" data-name="Line 37" class="cls-7" x2="17.374" transform="translate(0 6.866)"/>
      <line id="Line_38" data-name="Line 38" class="cls-7" x2="17.374" transform="translate(0 13.871)"/>
    </g>
    <path id="Path_360" data-name="Path 360" class="cls-6" d="M285.5,122.231H167.666a6.877,6.877,0,0,1-6.866-6.866h0a6.877,6.877,0,0,1,6.866-6.866H285.5a6.877,6.877,0,0,1,6.866,6.866h0A6.877,6.877,0,0,1,285.5,122.231Z" transform="translate(9587.981 -614.878)"/>
    <g id="Group_250" data-name="Group 250" transform="translate(9666.955 -503.295)">
      <line id="Line_39" data-name="Line 39" class="cls-8" x1="6.305" y2="6.165"/>
      <line id="Line_40" data-name="Line 40" class="cls-8" x1="6.305" y1="6.165"/>
    </g>
    <path id="Path_361" data-name="Path 361" class="cls-8" d="M126.882,116.865h0a3.11,3.11,0,0,1-3.082-3.082h0a3.11,3.11,0,0,1,3.082-3.083h0a3.11,3.11,0,0,1,3.082,3.083h0A3.11,3.11,0,0,1,126.882,116.865Z" transform="translate(9573.139 -613.995)"/>
    <line id="Line_41" data-name="Line 41" class="cls-8" x2="6.725" transform="translate(9681.246 -500.213)"/>
    <path id="Path_362" data-name="Path 362" class="cls-9" d="M0,0H131.286V29.844H0Z" transform="translate(9735.471 -269.586)"/>
    <path id="Path_363" data-name="Path 363" class="cls-1" d="M335.594,316.594H120.8A17.82,17.82,0,0,1,138.594,298.8H317.94a17.791,17.791,0,0,1,17.654,17.794Z" transform="translate(9571.936 -538.542)"/>
    <path id="Path_364" data-name="Path 364" class="cls-10" d="M281.148,201.711H204.506a6.938,6.938,0,0,1-7.006-7.006h0a6.938,6.938,0,0,1,7.006-7.006h76.642a6.938,6.938,0,0,1,7.006,7.006h0A7.119,7.119,0,0,1,281.148,201.711Z" transform="translate(9602.703 -583.108)"/>
    <path id="Path_365" data-name="Path 365" class="cls-10" d="M281.148,219.811H204.506a6.938,6.938,0,0,1-7.006-7.006h0a6.938,6.938,0,0,1,7.006-7.006h76.642a6.938,6.938,0,0,1,7.006,7.006h0A7.026,7.026,0,0,1,281.148,219.811Z" transform="translate(9602.703 -575.847)"/>
    <path id="Path_366" data-name="Path 366" class="cls-10" d="M276.106,201.711h0a6.938,6.938,0,0,1-7.006-7.006h0a6.938,6.938,0,0,1,7.006-7.006h0a6.938,6.938,0,0,1,7.006,7.006h0A7.119,7.119,0,0,1,276.106,201.711Z" transform="translate(9631.424 -583.108)"/>
    <path id="Path_367" data-name="Path 367" class="cls-10" d="M276.106,219.811h0a6.938,6.938,0,0,1-7.006-7.006h0a6.938,6.938,0,0,1,7.006-7.006h0a6.938,6.938,0,0,1,7.006,7.006h0A7.026,7.026,0,0,1,276.106,219.811Z" transform="translate(9631.424 -575.847)"/>
    <path id="Path_368" data-name="Path 368" class="cls-10" d="M288.154,231.806a6.938,6.938,0,0,1-7.006,7.006H204.506a6.938,6.938,0,0,1-7.006-7.006h0a6.938,6.938,0,0,1,7.006-7.006h76.642a7.026,7.026,0,0,1,7.006,7.006Z" transform="translate(9602.703 -568.226)"/>
    <path id="Path_369" data-name="Path 369" class="cls-10" d="M288.154,250.006a6.938,6.938,0,0,1-7.006,7.006H204.506a6.938,6.938,0,0,1-7.006-7.006h0A6.938,6.938,0,0,1,204.506,243h76.642a7.026,7.026,0,0,1,7.006,7.006Z" transform="translate(9602.703 -560.925)"/>
    <path id="Path_370" data-name="Path 370" class="cls-10" d="M276.106,238.811h0a6.938,6.938,0,0,1-7.006-7.006h0a6.938,6.938,0,0,1,7.006-7.006h0a6.938,6.938,0,0,1,7.006,7.006h0A7.026,7.026,0,0,1,276.106,238.811Z" transform="translate(9631.424 -568.226)"/>
    <path id="Path_371" data-name="Path 371" class="cls-10" d="M283.111,250.006a6.938,6.938,0,0,1-7.006,7.006h0a6.938,6.938,0,0,1-7.006-7.006h0A6.938,6.938,0,0,1,276.106,243h0a7.026,7.026,0,0,1,7.006,7.006Z" transform="translate(9631.424 -560.925)"/>
    <line id="Line_42" data-name="Line 42" class="cls-11" x2="93.596" transform="translate(9925.885 -200.23)"/>
    <line id="Line_43" data-name="Line 43" class="cls-12" x1="193.777" transform="translate(9525.58 -221.807)"/>
    <g id="Group_253" data-name="Group 253" transform="translate(9621.825 -346.648)">
      <path id="Path_372" data-name="Path 372" class="cls-13" d="M95.919,236.391c1.681,4.063,5.464,10.509,9.948,14.151,5.044,4.063,10.228,3.5,15.553,0a.937.937,0,0,1,1.4.28,1.043,1.043,0,0,1-.14,1.261c-12.05,11.489-25.921,1.4-33.347-12.75-2.242-4.2,4.2-7.706,6.445-3.363a.515.515,0,0,1,.14.42Z" transform="translate(-62.699 -217.896)"/>
      <path id="Path_373" data-name="Path 373" class="cls-14" d="M100.256,244.1h0a73.046,73.046,0,0,1-4.484-8.127,3.635,3.635,0,1,0-6.445,3.363,43.733,43.733,0,0,0,4.764,7.286C94.651,246.2,98.995,244.655,100.256,244.1Z" transform="translate(-62.693 -217.894)"/>
      <path id="Path_374" data-name="Path 374" class="cls-15" d="M98.118,261.562a2.66,2.66,0,0,0,2.662-2.662c0-1.681.14-3.5,0-5.324-.56-6.305-1.121-12.75-1.4-16.393a3.356,3.356,0,0,0-3.363-3.082H84.387a3.469,3.469,0,0,0-3.5,3.5c-.14,4.624-.42,13.311-.981,21.017h0a2.729,2.729,0,0,0,2.662,2.942Z" transform="translate(-66.299 -217.847)"/>
      <path id="Path_375" data-name="Path 375" class="cls-13" d="M91.664,311.372c-1.261-1.4-1.541-4.624-1.541-7.566a1.833,1.833,0,0,0-3.223-1.121h0v9.107C88.581,312.353,90.683,312.353,91.664,311.372Z" transform="translate(-63.488 -190.594)"/>
      <path id="Path_376" data-name="Path 376" class="cls-16" d="M91.692,308.6h0a7.934,7.934,0,0,1-2.522.42,10.888,10.888,0,0,1-2.242-.28l-.42,2.1a.924.924,0,0,0,.981,1.121c2.942.14,10.509.28,10.649,0C99.118,310.421,94.774,309.861,91.692,308.6Z" transform="translate(-63.657 -187.962)"/>
      <path id="Path_377" data-name="Path 377" class="cls-17" d="M87.383,293.893c-.42,2.8-.42,20.316.14,29.284h3.783c1.962-8.687,3.643-25.5,4.063-28.163v-.14c2.1-9.388,3.223-27.462,3.082-31.245-.14-5.044-3.363-8.967-7.286-8.827S84.3,259,84.3,264.049C84.58,267.131,87.523,292.492,87.383,293.893Z" transform="translate(-64.531 -209.544)"/>
      <path id="Path_378" data-name="Path 378" class="cls-18" d="M98.451,263.628c-.14-5.044-3.363-8.967-7.286-8.827S84.3,259,84.3,264.049c0,2.242,1.681,16.253,2.522,24.24.841-1.821,1.681-3.643,2.382-5.464a21.653,21.653,0,0,1,9.107-15.833C98.451,265.45,98.451,264.329,98.451,263.628Z" transform="translate(-64.531 -209.544)"/>
      <path id="Path_379" data-name="Path 379" class="cls-15" d="M75.513,310.5c-.28-2.662.981-5.745,2.1-8.687h0a1.942,1.942,0,0,0-3.5,0L71.73,307.14a.426.426,0,0,0,0,.56A5.086,5.086,0,0,0,75.513,310.5Z" transform="translate(-69.616 -191.126)"/>
      <path id="Path_380" data-name="Path 380" class="cls-16" d="M78.19,310.664a4.084,4.084,0,0,1-1.962-2.1,6.052,6.052,0,0,1-3.783-3.363,6.473,6.473,0,0,0-.981.981,10.7,10.7,0,0,1-1.121,1.541.692.692,0,0,0,.14.981l1.4,1.4c.28.28,2.942,2.522,3.643,2.662,1.821.28,5.044.56,5.184.14C80.852,312.066,79.451,311.225,78.19,310.664Z" transform="translate(-70.191 -189.326)"/>
      <path id="Path_381" data-name="Path 381" class="cls-19" d="M81.927,291.932c-.981,2.1-6.725,20.457-8.827,29.284a4.554,4.554,0,0,0,3.363,1.4c3.643-7.006,12.19-22.418,13.731-25.921,2.942-4.344,6.165-29.144,6.025-33.767-.14-5.044-3.363-8.967-7.286-8.827s-7.566,4.063-7.566,9.107C81.507,266.431,82.628,290.39,81.927,291.932Z" transform="translate(-69.024 -209.825)"/>
      <path id="Path_382" data-name="Path 382" class="cls-20" d="M96.5,234.1H94.679a4.65,4.65,0,0,1-8.407,0H84.591a3.142,3.142,0,0,0-3.223,3.082c-.14,4.624-.28,10.509-.841,18.495-.42,7.286-2.1,9.528-1.261,18.775,0,0,15.693,1.541,21.437-1.4a91.12,91.12,0,0,0,.56-19.476c-.56-6.305-1.121-12.75-1.4-16.533A3.452,3.452,0,0,0,96.5,234.1Z" transform="translate(-66.644 -217.847)"/>
      <path id="Path_383" data-name="Path 383" class="cls-13" d="M115.628,244.961s-3.083-.28-3.363.56-.56,1.541.841,2.242a10.652,10.652,0,0,0,4.624.7,8.458,8.458,0,0,0,3.5-1.4c.56-.981-1.681-.56-2.8-.42s-2.382.28-2.242-.28,2.242-.7,2.522-1.261C118.711,244.4,115.628,244.961,115.628,244.961Z" transform="translate(-53.405 -213.575)"/>
      <path id="Path_384" data-name="Path 384" class="cls-15" d="M86.995,237.732c5.044,11.349,29.7,10.509,37.13,10.649h0a1,1,0,0,1,.981,1.121c0,1.261-1.541,1.121-6.585,2.1C83.912,258.329,74.1,235.49,82.511,234.51,85.314,234.089,86.995,237.732,86.995,237.732Z" transform="translate(-66.386 -217.696)"/>
      <g id="Group_251" data-name="Group 251" transform="translate(13.015 16.391)">
        <path id="Path_385" data-name="Path 385" class="cls-14" d="M91,241.907c-3.363-2.382-3.923-4.764-3.923-4.764v.14l-.28-.56a4.037,4.037,0,0,0-5.184-2.242h-.14c-2.382.981-1.962,3.923-1.962,3.923,0,.42.841,5.044,6.445,9.247C86.094,247.652,91.418,242.327,91,241.907Z" transform="translate(-79.48 -234.198)"/>
      </g>
      <path id="Path_386" data-name="Path 386" class="cls-21" d="M86.763,232.466h-.28a3.11,3.11,0,0,1-3.083-3.082V224.9h3.223v7.566Z" transform="translate(-64.892 -221.537)"/>
      <g id="Group_252" data-name="Group 252" transform="translate(20.049 10.228)">
        <path id="Path_387" data-name="Path 387" class="cls-15" d="M90.525,235.825H84.5l1.821-6.025,4.063.42Z" transform="translate(-84.5 -229.8)"/>
      </g>
      <path id="Path_388" data-name="Path 388" class="cls-13" d="M90.1,230.26l-4.063-.56-.841,2.8c.981.981,2.242,2.662,3.783,2.662a1.956,1.956,0,0,0,1.261-.42Z" transform="translate(-64.17 -219.612)"/>
      <path id="Path_389" data-name="Path 389" class="cls-15" d="M89.344,235.149h0A5.023,5.023,0,0,1,84.3,230.1v-5.6h8.687a48.519,48.519,0,0,1-.56,7.286C91.866,234.168,90.745,235.149,89.344,235.149Z" transform="translate(-64.531 -221.698)"/>
      <path id="Path_390" data-name="Path 390" class="cls-15" d="M86.022,228.362c0,1.121-.56,1.962-1.121,1.962-.7,0-1.4-1.4-1.4-2.522a1.25,1.25,0,0,1,1.4-1.4C85.462,226.4,86.022,227.241,86.022,228.362Z" transform="translate(-64.852 -220.936)"/>
      <path id="Path_391" data-name="Path 391" class="cls-21" d="M94.149,222.5a12.83,12.83,0,0,1-4.484.28H86.723A3.171,3.171,0,0,0,83.5,226v.7l.981,1.261.981,1.4h.14a.958.958,0,0,0,.981-.981,1.682,1.682,0,0,1,1.541-1.681h2.662c1.541,0,2.382.841,2.382,1.962l-.14.981C93.028,229.786,95.41,227.824,94.149,222.5Z" transform="translate(-64.852 -222.5)"/>
      <path id="Path_392" data-name="Path 392" class="cls-15" d="M114.224,244.589s-2.942-.7-3.5,0c-.56.841-.7,1.541.42,2.242a10.712,10.712,0,0,0,4.484,1.541,6.894,6.894,0,0,0,3.643-.841c.7-.841-1.681-.841-2.8-.841s-2.382-.14-2.242-.7,2.242-.28,2.662-.841C117.447,244.589,114.224,244.589,114.224,244.589Z" transform="translate(-54.103 -213.764)"/>
    </g>
    <g id="Group_258" data-name="Group 258" transform="translate(9755.227 -389.884)">
      <path id="Path_393" data-name="Path 393" class="cls-13" d="M199.531,225.677a6.609,6.609,0,0,1-8.407-2.1c-4.2-5.464-5.044-19.055-5.324-26.061a1.066,1.066,0,0,1,2.1-.28c.841,4.063,1.541,7.566,2.382,10.929.841,2.942,3.923,13.731,6.445,12.05,3.223-2.1,6.445-11.629,6.025-10.228a3.591,3.591,0,0,1,6.725,2.522C209.059,214.048,204.855,223.155,199.531,225.677Z" transform="translate(-157.217 -189.728)"/>
      <path id="Path_394" data-name="Path 394" class="cls-22" d="M194.9,214.555c.841-1.261,1.541-2.522,2.382-3.783.7-1.261,1.4-2.662,1.962-3.923h0c0-.14.14-.14.14-.28a3.635,3.635,0,0,1,6.445,3.363,34.421,34.421,0,0,1-2.662,4.484c-.7.981-1.541,2.522-2.242,3.363C196.441,217.5,194.9,214.555,194.9,214.555Z" transform="translate(-153.567 -186.452)"/>
      <path id="Path_395" data-name="Path 395" class="cls-15" d="M197.714,240.369a2.02,2.02,0,0,0,1.261,1.541c4.484,1.541,11.209,2.242,18.495,2.942a1.732,1.732,0,0,0,1.962-1.822c0-2.942-1.261-8.407-1.541-14.011-.42-6.866-.7-14.432-.841-19.336a5.385,5.385,0,0,0-5.324-5.184H203.6a5.1,5.1,0,0,0-5.184,4.764c-.28,3.783-.7,9.247-1.261,14.712C196.594,229.16,197.434,237.427,197.714,240.369Z" transform="translate(-152.738 -186.485)"/>
      <path id="Path_396" data-name="Path 396" class="cls-13" d="M208.109,274.364v7.146l.56,3.5a.924.924,0,0,1-.981,1.121c-2.942.14-10.509.28-10.649,0-.981-1.541,3.363-2.1,6.445-3.363s.981-13.171.981-13.171Z" transform="translate(-152.765 -160.371)"/>
      <path id="Path_397" data-name="Path 397" class="cls-23" d="M203.587,279.1h0a7.934,7.934,0,0,0,2.522.42,10.888,10.888,0,0,0,2.242-.28l.42,2.1a.924.924,0,0,1-.981,1.121c-2.942.14-10.509.28-10.649,0C196.161,280.921,200.364,280.221,203.587,279.1Z" transform="translate(-152.725 -156.561)"/>
      <path id="Path_398" data-name="Path 398" class="cls-24" d="M197.4,234.167c-.14,5.044,1.821,36.71,5.745,36.71,3.923.14,8.267-31.385,8.267-36.43.14-5.044-2.942-9.107-6.866-9.247C200.765,225.2,197.542,229.123,197.4,234.167Z" transform="translate(-152.566 -178.182)"/>
      <path id="Path_399" data-name="Path 399" class="cls-25" d="M208.472,264.293c.42,2.8.42,20.316-.14,29.284h-3.5c-1.962-8.687-3.923-25.5-4.344-28.163v-.14c-2.1-9.388-3.223-27.462-3.082-31.245.14-5.044,3.363-8.967,7.286-8.827s6.866,4.2,6.866,9.248C211.415,237.531,208.332,263.032,208.472,264.293Z" transform="translate(-152.567 -178.183)"/>
      <path id="Path_400" data-name="Path 400" class="cls-26" d="M206.547,252.8c.841,2.1,1.681,4.2,2.382,6.305.841-7.986,2.522-22.418,2.522-24.66.14-5.044-2.942-9.107-6.866-9.248s-7.146,3.923-7.286,8.827v3.363A21.449,21.449,0,0,1,206.547,252.8Z" transform="translate(-152.604 -178.183)"/>
      <path id="Path_401" data-name="Path 401" class="cls-13" d="M214.209,274.364v7.146l.56,3.5a.924.924,0,0,1-.981,1.121c-2.942.14-10.509.28-10.649,0-.981-1.541,3.363-2.1,6.445-3.363s.981-13.171.981-13.171Z" transform="translate(-150.318 -160.371)"/>
      <path id="Path_402" data-name="Path 402" class="cls-27" d="M209.586,279.1h0a7.933,7.933,0,0,0,2.522.42,10.888,10.888,0,0,0,2.242-.28l.42,2.1a.924.924,0,0,1-.981,1.121c-2.942.14-10.509.28-10.649,0C202.16,280.921,206.5,280.221,209.586,279.1Z" transform="translate(-150.318 -156.561)"/>
      <path id="Path_403" data-name="Path 403" class="cls-24" d="M203.5,234.167c-.14,5.044,1.821,36.71,5.745,36.71,3.923.14,7.426-31.526,7.426-36.57.14-5.044-2.1-8.967-6.025-9.107C206.865,225.2,203.642,229.123,203.5,234.167Z" transform="translate(-150.119 -178.182)"/>
      <path id="Path_404" data-name="Path 404" class="cls-24" d="M214.812,264.292c.42,2.8.42,20.316-.14,29.284h-3.5c-1.962-8.687-3.923-25.5-4.344-28.163v-.14c-2.1-9.388-4.063-27.6-3.923-31.245.14-5.044,4.2-8.827,8.127-8.827,3.923.14,6.025,4.063,6.025,9.107C216.773,237.53,214.672,263.031,214.812,264.292Z" transform="translate(-150.359 -178.182)"/>
      <path id="Path_405" data-name="Path 405" class="cls-28" d="M198.474,207.582a3.365,3.365,0,0,1,3.363-3.082h1.821a4.65,4.65,0,0,0,8.407,0h1.681a3.142,3.142,0,0,1,3.223,3.082c.14,4.624.28,11.489.841,19.476.42,7.286,2.522,10.509,1.541,17.794,0,0-18.915,1.4-22.138-2.242a135.512,135.512,0,0,1-.14-18.775C197.633,217.671,198.194,211.225,198.474,207.582Z" transform="translate(-152.797 -186.485)"/>
      <path id="Path_406" data-name="Path 406" class="cls-13" d="M185.1,196.767s.14,3.5.981,4.063c.841.42,1.4.28,2.1-.841a9.2,9.2,0,0,0,.981-4.624,16.115,16.115,0,0,0-1.121-3.643c-.841-.56-.42,1.962-.28,3.082,0,1.121-.28,1.681-.841,1.541s-.42-1.821-.981-2.242C185.24,193.965,185.1,196.767,185.1,196.767Z" transform="translate(-157.498 -191.643)"/>
      <path id="Path_407" data-name="Path 407" class="cls-15" d="M224.226,210.5c-10.228,13.871-29.144,22-43.435,8.547a1.063,1.063,0,0,1,1.261-1.681h0c6.585,3.783,12.61,5.464,20.176,2.242,6.305-2.662,12.05-7.986,15.973-13.451l.14-.14C221.283,202.234,227.028,206.577,224.226,210.5Z" transform="translate(-159.353 -186.461)"/>
      <g id="Group_254" data-name="Group 254" transform="translate(53.664 18.106)">
        <path id="Path_408" data-name="Path 408" class="cls-22" d="M203.7,211.9a68.494,68.494,0,0,0,5.6-6.445s1.4-1.681,4.484-.42c2.382.981,1.962,3.923,1.962,3.923,0,.42-.841,5.044-6.445,9.247C209.3,218.065,204.821,216.1,203.7,211.9Z" transform="translate(-203.7 -204.565)"/>
      </g>
      <path id="Path_409" data-name="Path 409" class="cls-21" d="M205.1,203.666h.28a2.974,2.974,0,0,0,3.643-2.382L210,196.8l-3.223-.7Z" transform="translate(-149.475 -189.855)"/>
      <g id="Group_255" data-name="Group 255" transform="translate(52.683 11.99)">
        <path id="Path_410" data-name="Path 410" class="cls-15" d="M203,206.225h6.025l-1.681-6.025-4.2.56Z" transform="translate(-203 -200.2)"/>
      </g>
      <path id="Path_411" data-name="Path 411" class="cls-13" d="M203.14,200.76l4.063-.56.841,2.8c-.981.981-2.242,2.662-3.783,2.662a1.956,1.956,0,0,1-1.261-.42Z" transform="translate(-150.317 -188.21)"/>
      <path id="Path_412" data-name="Path 412" class="cls-15" d="M203.306,206.069h0a5.107,5.107,0,0,0,6.025-3.783l1.261-5.464L202.185,195a41.921,41.921,0,0,0-.981,7.286C201.064,204.388,201.9,205.789,203.306,206.069Z" transform="translate(-151.044 -190.296)"/>
      <path id="Path_413" data-name="Path 413" class="cls-15" d="M206.126,199.686c-.28,1.121.14,2.1.7,2.242.7.14,1.681-1.121,1.822-2.242a1.246,1.246,0,0,0-.981-1.681C207.106,197.865,206.406,198.566,206.126,199.686Z" transform="translate(-149.099 -189.098)"/>
      <path id="Path_414" data-name="Path 414" class="cls-21" d="M201.1,197.578a10.818,10.818,0,0,1,.28-2.1h0a3.318,3.318,0,0,1,4.2-1.822c.14,0,.42.14.56.14l2.8.7a3.178,3.178,0,0,1,2.382,3.783l-.14.7-1.261.981-1.121,1.121h-.14a1.174,1.174,0,0,1-.841-1.121A1.642,1.642,0,0,0,206.7,198l-2.522-.56c-1.541-.28-2.522.28-2.8,1.4l-.14.981Z" transform="translate(-151.079 -190.912)"/>
      <path id="Path_415" data-name="Path 415" class="cls-15" d="M180.252,214.159s.28,3.083,1.121,3.223c.981.28,1.681.28,2.1-1.121a10.283,10.283,0,0,0,0-4.624,7.963,7.963,0,0,0-1.962-3.223c-.981-.42-.28,1.822.14,2.942s.56,2.242,0,2.382c-.56,0-.981-2.1-1.681-2.242C179.272,211.217,180.252,214.159,180.252,214.159Z" transform="translate(-159.656 -184.936)"/>
      <g id="Group_256" data-name="Group 256" transform="translate(23.399 39.172)">
        <line id="Line_44" data-name="Line 44" class="cls-29" x2="23.399" y2="128.764" transform="translate(34.608)"/>
        <line id="Line_45" data-name="Line 45" class="cls-29" x1="23.399" y1="128.764"/>
        <line id="Line_46" data-name="Line 46" class="cls-29" x2="33.767" transform="translate(2.802 10.368)"/>
        <line id="Line_47" data-name="Line 47" class="cls-29" x2="34.328" transform="translate(5.044 25.921)"/>
        <line id="Line_48" data-name="Line 48" class="cls-29" x2="34.048" transform="translate(8.127 41.474)"/>
        <line id="Line_49" data-name="Line 49" class="cls-29" x2="33.767" transform="translate(11.209 57.026)"/>
        <line id="Line_50" data-name="Line 50" class="cls-29" x2="34.188" transform="translate(13.591 72.439)"/>
        <line id="Line_51" data-name="Line 51" class="cls-29" x2="34.748" transform="translate(15.833 87.711)"/>
        <line id="Line_52" data-name="Line 52" class="cls-29" x2="34.188" transform="translate(19.336 103.544)"/>
        <line id="Line_53" data-name="Line 53" class="cls-29" x2="34.328" transform="translate(21.577 119.097)"/>
      </g>
      <g id="Group_257" data-name="Group 257" transform="translate(0 39.172)">
        <line id="Line_54" data-name="Line 54" class="cls-30" x1="23.399" y2="128.764"/>
        <line id="Line_55" data-name="Line 55" class="cls-30" y1="128.764" x2="23.399" transform="translate(34.608)"/>
        <line id="Line_56" data-name="Line 56" class="cls-30" x1="33.907" transform="translate(21.437 10.368)"/>
        <line id="Line_57" data-name="Line 57" class="cls-30" x1="34.468" transform="translate(18.635 25.921)"/>
        <line id="Line_58" data-name="Line 58" class="cls-30" x1="34.048" transform="translate(15.833 41.474)"/>
        <line id="Line_59" data-name="Line 59" class="cls-30" x1="33.907" transform="translate(13.031 57.026)"/>
        <line id="Line_60" data-name="Line 60" class="cls-30" x1="34.188" transform="translate(10.228 72.439)"/>
        <line id="Line_61" data-name="Line 61" class="cls-30" x1="34.748" transform="translate(7.426 87.711)"/>
        <line id="Line_62" data-name="Line 62" class="cls-30" x1="34.188" transform="translate(4.484 103.544)"/>
        <line id="Line_63" data-name="Line 63" class="cls-30" x1="34.328" transform="translate(2.102 119.097)"/>
      </g>
      <path id="Path_416" data-name="Path 416" class="cls-21" d="M210.052,195.568c.14,1.541-5.464,3.5-6.866,3.783a2.911,2.911,0,0,1-3.082-2.522,2.941,2.941,0,0,1,2.382-3.223C203.887,193.466,209.772,194.026,210.052,195.568Z" transform="translate(-151.484 -190.864)"/>
    </g>
    <path id="Path_417" data-name="Path 417" class="cls-31" d="M0,0H115.874V50.3H0Z" transform="translate(9800.343 -459.58)"/>
    <path id="Path_418" data-name="Path 418" class="cls-32" d="M311.147,157.551,206.622,178.568a4.62,4.62,0,0,1-5.464-3.643l-8.127-40.213a4.621,4.621,0,0,1,3.643-5.464L301.2,108.231a4.621,4.621,0,0,1,5.464,3.643l8.127,40.213A4.488,4.488,0,0,1,311.147,157.551Z" transform="translate(9600.867 -615.029)"/>
    <path id="Path_419" data-name="Path 419" class="cls-6" d="M311.547,153.951,207.022,174.968a4.62,4.62,0,0,1-5.464-3.643l-8.127-40.213a4.62,4.62,0,0,1,3.643-5.464L301.6,104.631a4.62,4.62,0,0,1,5.464,3.643l8.127,40.213A4.729,4.729,0,0,1,311.547,153.951Z" transform="translate(9601.027 -616.473)"/>
    <path id="Path_420" data-name="Path 420" class="cls-33" d="M194.9,184.141l14.011-22.558L211.433,10.4l80.145,133.949,17.094,12.75" transform="translate(9601.66 -654.229)"/>
    <g id="Group_261" data-name="Group 261" transform="translate(9644.058 -656.299)">
      <path id="Path_421" data-name="Path 421" class="cls-34" d="M122.644,56.3c2.662,2.662,23.119,24.52,22,25.22-.981.56-25.08-16.814-27.743-19.476s-3.643-6.165-1.962-7.706C116.479,52.656,119.842,53.637,122.644,56.3Z" transform="translate(-74.806 19.362)"/>
      <path id="Path_422" data-name="Path 422" class="cls-15" d="M144.531,78.609c-2.662-1.261-7.566-6.025-12.47-10.509L130.8,71.323l7.846,7.286C140.468,79.309,143.27,79.449,144.531,78.609Z" transform="translate(-68.11 25.216)"/>
      <path id="Path_423" data-name="Path 423" class="cls-27" d="M141.864,75.4a10.5,10.5,0,0,1-5.464.28v2.662a.662.662,0,0,0,.7.7s12.05.14,12.05-.42C149.01,75.54,142.705,75.82,141.864,75.4Z" transform="translate(-65.864 28.144)"/>
      <path id="Path_424" data-name="Path 424" class="cls-15" d="M155.231,78.609c-2.662-1.261-7.566-6.025-12.47-10.509L141.5,71.323l7.846,7.286C151.168,79.309,153.83,79.449,155.231,78.609Z" transform="translate(-63.818 25.216)"/>
      <path id="Path_425" data-name="Path 425" class="cls-27" d="M152.564,75.4a10.5,10.5,0,0,1-5.464.28v2.662a.662.662,0,0,0,.7.7s12.05.14,12.05-.42C159.71,75.54,153.405,75.82,152.564,75.4Z" transform="translate(-61.572 28.144)"/>
      <path id="Path_426" data-name="Path 426" class="cls-25" d="M136.057,66.414c1.681,1.681,16.674,13.451,24.24,18.635a13.426,13.426,0,0,0,2.522-2.382c-5.184-5.885-16.533-19.336-19.2-22.138-2.942-4.344-24.94-16.253-29.284-17.935-4.624-1.681-9.528-.14-10.929,3.5s1.121,8.547,5.745,10.368C112.238,57.587,134.936,65.293,136.057,66.414Z" transform="translate(-79.252 14.712)"/>
      <path id="Path_427" data-name="Path 427" class="cls-26" d="M116.361,43.535a16.554,16.554,0,0,0-1.821-.841c-4.624-1.681-9.528-.14-10.929,3.5s1.121,8.547,5.745,10.368c1.541.56,7.986,2.8,14.292,5.044A36.7,36.7,0,0,1,116.361,43.535Z" transform="translate(-79.172 14.752)"/>
      <path id="Path_428" data-name="Path 428" class="cls-24" d="M130.426,59.062c-1.821-2.662-11.349-8.547-19.055-12.75a3.208,3.208,0,0,0-3.5.28c-2.242,1.681-4.764,3.082-7.146,4.624a3.655,3.655,0,0,0-1.541,2.942V55c0,.42-.28.28-.28.7,7.146,2.522,22.979,8.407,23.819,9.388,1.681,1.681,16.814,13.591,24.24,18.775a7.007,7.007,0,0,0,3.223-2.242C145.137,75.6,133.088,61.864,130.426,59.062Z" transform="translate(-80.907 16.319)"/>
      <path id="Path_429" data-name="Path 429" class="cls-13" d="M100.441,22.295c9.107,8.407,28.3,9.247,40.633,8.827a1.062,1.062,0,0,1,.28,2.1c-14.432,2.8-33.767,3.5-45.537-5.324-3.783-2.942.56-8.687,4.344-5.885C100.161,22.155,100.3,22.155,100.441,22.295Z" transform="translate(-82.728 6.428)"/>
      <path id="Path_430" data-name="Path 430" class="cls-35" d="M107.757,26.17c-1.261-.7-6.445-3.223-7.566-4.063h0c-.14,0-.14-.14-.28-.14a3.654,3.654,0,1,0-3.923,6.165,36.148,36.148,0,0,0,4.484,2.522,22.355,22.355,0,0,0,3.223,1.4C103.834,31.214,107.757,26.17,107.757,26.17Z" transform="translate(-82.758 6.476)"/>
      <path id="Path_431" data-name="Path 431" class="cls-15" d="M119.917,51.246,103.8,65.537c-1.962-.7-3.783-7.846-6.866-14.432C93.576,44.1,89.512,36.394,87.411,32.33a3.631,3.631,0,0,1,1.4-4.764L98.9,21.822a3.369,3.369,0,0,1,4.484,1.121c2.1,3.082,5.044,10.228,8.547,15.412C115.573,43.539,119.917,51.246,119.917,51.246Z" transform="translate(-85.67 6.481)"/>
      <path id="Path_432" data-name="Path 432" class="cls-36" d="M99.121,21.833l-1.681.981a4.151,4.151,0,0,1-2.382,4.344,4.4,4.4,0,0,1-5.044-.28l-1.541.841a3.212,3.212,0,0,0-1.261,4.344c2.1,4.063,6.165,11.91,9.668,19.055,3.082,6.585,4.764,13.311,6.866,14.432,7.146-4.9,16.253-10.088,17.234-14.572,0,0-11.209-16.533-17.654-28.163C102.624,21.273,100.663,20.993,99.121,21.833Z" transform="translate(-85.752 6.47)"/>
      <path id="Path_433" data-name="Path 433" class="cls-13" d="M130.985,31s-2.8,1.261-3.5.56-.981-1.261,0-2.382a10.655,10.655,0,0,1,4.063-2.242,7.463,7.463,0,0,1,3.783.28c.841.7-1.541,1.121-2.522,1.261-1.121.28-2.382.56-2.1,1.121s2.382-.14,2.8.42C134.067,30.436,130.985,31,130.985,31Z" transform="translate(-69.696 8.656)"/>
      <path id="Path_434" data-name="Path 434" class="cls-37" d="M91.764,22.926h-.28A3.244,3.244,0,0,1,87.841,20.4L87,16.06l3.223-.56Z" transform="translate(-85.68 4.116)"/>
      <g id="Group_259" data-name="Group 259" transform="translate(5.523 26.061)">
        <path id="Path_435" data-name="Path 435" class="cls-15" d="M95.6,25.424l-5.044,2.1-.56-.56.28-6.585,4.063-.28Z" transform="translate(-90 -20.1)"/>
      </g>
      <path id="Path_436" data-name="Path 436" class="cls-13" d="M94.344,20.1l-4.2.28L90,23.042c1.121.841,2.382,1.821,3.923,1.541a3.674,3.674,0,0,0,1.261-.7Z" transform="translate(-84.477 5.961)"/>
      <path id="Path_437" data-name="Path 437" class="cls-15" d="M94.666,25.369h0a4.976,4.976,0,0,1-5.885-4.063L87.8,15.841,96.347,14.3a38.72,38.72,0,0,1,.7,7.286C96.907,23.828,96.067,25.089,94.666,25.369Z" transform="translate(-85.359 3.635)"/>
      <rect id="Rectangle_54" data-name="Rectangle 54" class="cls-37" width="1.681" height="0.701" transform="translate(2.232 21.605) rotate(-10.72)"/>
      <path id="Path_438" data-name="Path 438" class="cls-15" d="M90.168,18.921c.14,1.121-.14,2.1-.841,2.1-.7.14-1.541-1.121-1.821-2.242A1.316,1.316,0,0,1,88.627,17.1C89.188,17.1,89.888,17.8,90.168,18.921Z" transform="translate(-85.486 4.758)"/>
      <path id="Path_439" data-name="Path 439" class="cls-37" d="M97.481,17.22a5.446,5.446,0,0,0-.28-2.1s-.42-2.522-1.541-2.8c-.981-.28-2.382.56-3.223.981a19.09,19.09,0,0,1-2.8.56,3.235,3.235,0,0,0-2.522,3.783l.14.7,1.681.981.7,1.261h.14c.56-.14.981-.56.841-1.121A1.731,1.731,0,0,1,91.876,17.5l2.522-.42a2.189,2.189,0,0,1,2.8,1.541l.14.981Z" transform="translate(-85.652 2.816)"/>
      <line id="Line_64" data-name="Line 64" class="cls-38" x1="125.402" y2="53.804" transform="translate(26.12)"/>
      <path id="Path_440" data-name="Path 440" class="cls-15" d="M100.853,34.311a31.355,31.355,0,0,0,13.311,3.783c7.846.981,21.858-3.783,20.457-3.363,1.261-.42,1.821,1.261.841,1.962-6.165,3.223-14.572,6.725-21.157,6.725h-3.363C100.012,43,90.9,37.394,86.981,31.649a3.716,3.716,0,0,1,.841-5.044C91.885,23.8,92.866,29.828,100.853,34.311Z" transform="translate(-85.942 8.283)"/>
      <g id="Group_260" data-name="Group 260" transform="translate(0 34.062)">
        <path id="Path_441" data-name="Path 441" class="cls-35" d="M98.026,32.241a49.127,49.127,0,0,1-5.184-4.9v.14l-1.962-1.541s-2.1-.841-4.2,1.821c-1.541,2.1.28,4.344.28,4.344.28.28,1.4,3.082,7.286,6.445C94.243,38.546,98.447,32.521,98.026,32.241Z" transform="translate(-86.058 -25.81)"/>
      </g>
      <path id="Path_442" data-name="Path 442" class="cls-15" d="M123.295,31.679s-2.942.56-3.082,1.541,0,1.681,1.4,1.821a10.044,10.044,0,0,0,4.624-.56A9.234,9.234,0,0,0,129.18,32.1c.28-1.121-1.821,0-2.8.42s-2.242.841-2.242.28c-.14-.56,1.962-1.261,2.1-1.962C126.1,30.277,123.295,31.679,123.295,31.679Z" transform="translate(-72.375 10.215)"/>
    </g>
    <path id="Path_443" data-name="Path 443" class="cls-1" d="M278.786,193.745a3.643,3.643,0,1,1-7.286,0,3.709,3.709,0,0,1,3.643-3.643A3.532,3.532,0,0,1,278.786,193.745Z" transform="translate(9632.387 -582.148)"/>
    <path id="Path_444" data-name="Path 444" class="cls-1" d="M278.786,211.743a3.643,3.643,0,1,1-7.286,0,3.643,3.643,0,1,1,7.286,0Z" transform="translate(9632.387 -574.925)"/>
    <g id="Group_265" data-name="Group 265" transform="translate(9902.626 -326.66)">
      <path id="Path_445" data-name="Path 445" class="cls-3" d="M299.011,239.9a7.147,7.147,0,0,1,.28,4.484,7.266,7.266,0,0,0,1.541,7.006,27.358,27.358,0,0,1,.981-4.624C302.514,245.224,302.094,240.741,299.011,239.9Z" transform="translate(-259.219 -235.509)"/>
      <path id="Path_446" data-name="Path 446" class="cls-39" d="M303.985,239.729s-3.363,2.1-2.942,4.9c0,0-1.821-1.261-2.242-5.6C298.661,236.086,303.985,239.729,303.985,239.729Z" transform="translate(-259.289 -236.319)"/>
      <path id="Path_447" data-name="Path 447" class="cls-3" d="M321.918,252.25a6.89,6.89,0,0,1-3.783-3.643,11.06,11.06,0,0,0-5.464-6.025,3.221,3.221,0,0,1-1.962-3.082h-3.223v2.522c-4.484.981-7.986,5.6-7.986,11.209,0,6.025,4.063,11.069,9.247,11.349.7,5.464,4.764,9.668,9.668,9.668,5.464,0,9.808-5.044,9.808-11.349A11.555,11.555,0,0,0,321.918,252.25Z" transform="translate(-259.007 -235.669)"/>
      <g id="Group_262" data-name="Group 262" transform="translate(12.465 16.852)">
        <path id="Path_448" data-name="Path 448" class="cls-15" d="M311.027,252.866c0,.42-.14.56-.14.841s-.14.42-.14.7l-.42,1.261a12.422,12.422,0,0,1-1.121,2.382,13,13,0,0,1-3.783,4.063,21.171,21.171,0,0,1-2.522,1.261,9.046,9.046,0,0,1-2.662.56c-.841,0-1.681.14-2.522.14-.841-.14-1.681-.14-2.382-.28a29.064,29.064,0,0,1-8.267-3.223l-1.821-1.121a12.8,12.8,0,0,1-1.821-1.121l-3.5-2.522a1.087,1.087,0,0,1-.28-1.4.913.913,0,0,1,1.261-.28h.14a71.287,71.287,0,0,0,7.566,3.083,29.264,29.264,0,0,0,7.426,1.541,8.057,8.057,0,0,0,5.745-1.681,9.035,9.035,0,0,0,1.541-2.242,4.112,4.112,0,0,0,.42-1.4c0-.28.14-.42.14-.7v-.56A3.721,3.721,0,0,1,307.8,248.8,3.956,3.956,0,0,1,311.027,252.866Z" transform="translate(-279.496 -248.794)"/>
      </g>
      <path id="Path_449" data-name="Path 449" class="cls-15" d="M296.653,284.109c3.223,3.643,21.437,5.184,21.437,5.184,1.4-1.541-4.9-19.476-4.9-19.476s3.083-12.89,2.942-17.514a3.559,3.559,0,0,0-3.5-3.5H301a3.365,3.365,0,0,0-3.363,3.083c-.28,3.643,4.484,17.374,4.484,17.374S293.991,280.886,296.653,284.109Z" transform="translate(-260.364 -231.939)"/>
      <path id="Path_450" data-name="Path 450" class="cls-13" d="M303.73,328.032a.893.893,0,0,0,0,.841,1.094,1.094,0,0,0,.56.56c2.242.981,3.223.56,4.484-.28V318.224l-2.1-3.223a.847.847,0,0,0-1.541.56c.7,4.484,1.261,11.489-.981,11.91C304.01,327.331,303.87,327.752,303.73,328.032Z" transform="translate(-257.353 -205.525)"/>
      <path id="Path_451" data-name="Path 451" class="cls-40" d="M307.827,324.921a3.067,3.067,0,0,1-1.962-1.121c-4.624.42-6.866,1.962-6.866,3.223.14.28,8.127,0,11.069,0,.56,0,.841-.56.7-1.261l-.28-1.681C310.209,324.641,309.228,325.061,307.827,324.921Z" transform="translate(-259.208 -201.854)"/>
      <path id="Path_452" data-name="Path 452" class="cls-15" d="M336.344,287.2c-8.827,2.382-23.679,7.286-26.061,8.547-3.363,1.681-4.484,5.044-3.363,7.006.981,1.962,3.643,1.962,7.146.14,2.382-1.261,15.973-8.967,23.679-13.591C337.325,288.321,336.624,288.041,336.344,287.2Z" transform="translate(-256.199 -216.535)"/>
      <path id="Path_453" data-name="Path 453" class="cls-15" d="M336.991,289.2a.958.958,0,0,0,.981-.981c-.14-2.382-.841-3.083-2.242-3.923a62.528,62.528,0,0,1-11.069,5.464h0a1.91,1.91,0,0,0,2.662,2.522c3.643-1.962,7.986-4.063,8.967-3.083Z" transform="translate(-248.999 -217.698)"/>
      <path id="Path_454" data-name="Path 454" class="cls-40" d="M333.562,287.168a4,4,0,0,1-.14,2.242c2.382,3.923,4.764,5.184,5.885,4.624.14-.28-3.5-7.286-4.9-9.808a.853.853,0,0,0-1.4-.14l-1.4.981C332.3,285.067,333.141,285.767,333.562,287.168Z" transform="translate(-246.131 -217.905)"/>
      <path id="Path_455" data-name="Path 455" class="cls-13" d="M306.48,326.352c.981.56,2.242.42,3.223.981.28-9.107,0-24.1-.56-26.762-.7-3.783-2.942-6.445-5.184-6.165-2.242.42-3.5,3.783-2.8,7.566C301.716,304.494,304.378,317.525,306.48,326.352Z" transform="translate(-258.421 -213.653)"/>
      <path id="Path_456" data-name="Path 456" class="cls-13" d="M296.805,278.929c.28,5.044,4.764,36.43,8.687,36.149s5.6-31.946,5.324-36.99-3.643-8.827-7.566-8.687C299.467,269.681,296.525,273.885,296.805,278.929Z" transform="translate(-260.096 -223.676)"/>
      <path id="Path_457" data-name="Path 457" class="cls-15" d="M301,277.947c.14,5.044,5.745,33.487,9.528,33.347,3.923,0,5.324-28.723,5.184-33.767s-4.063-8.827-7.846-8.827C304.083,268.84,301,273.044,301,277.947Z" transform="translate(-258.405 -223.956)"/>
      <g id="Group_263" data-name="Group 263" transform="translate(44.696 11.397)">
        <path id="Path_458" data-name="Path 458" class="cls-15" d="M302.5,251.205l5.184-.56-1.541-5.745-3.5.42Z" transform="translate(-302.5 -244.9)"/>
      </g>
      <path id="Path_459" data-name="Path 459" class="cls-13" d="M302.64,245.32,306,244.9l.56,1.821c-.7.841-1.681,2.662-2.942,2.662a3.3,3.3,0,0,1-1.121-.28Z" transform="translate(-257.804 -233.503)"/>
      <path id="Path_460" data-name="Path 460" class="cls-15" d="M303.532,250.269c1.121,0,2.382-.56,4.063-2.1a5.171,5.171,0,0,0,1.681-3.363v-5.6h-8.687a14.334,14.334,0,0,0,0,5.885C301.15,247.467,302.551,250.269,303.532,250.269Z" transform="translate(-258.695 -235.79)"/>
      <rect id="Rectangle_55" data-name="Rectangle 55" class="cls-3" width="1.681" height="0.701" transform="translate(51.059 6.285) rotate(180)"/>
      <path id="Path_461" data-name="Path 461" class="cls-15" d="M305.7,243.062c0,1.121.56,1.962,1.121,1.962.7,0,1.4-1.4,1.4-2.522a1.25,1.25,0,0,0-1.4-1.4C306.12,241.1,305.7,241.941,305.7,243.062Z" transform="translate(-256.52 -235.028)"/>
      <path id="Path_462" data-name="Path 462" class="cls-3" d="M307.757,237.654h-2.942a4.112,4.112,0,0,1-2.242-.56,2.539,2.539,0,0,0-3.223.56c-.7.981-.981,2.382.981,3.643.981.7,2.382,0,3.363.28h2.8a1.59,1.59,0,0,1,1.541,1.681,1.053,1.053,0,0,0,.981.981h.14l.42-1.261,1.4-1.261v-.7A3.291,3.291,0,0,0,307.757,237.654Z" transform="translate(-259.278 -236.766)"/>
      <path id="Path_463" data-name="Path 463" class="cls-15" d="M279.24,254.988s2.942.841,3.5,0,.841-1.4-.42-2.242a10.144,10.144,0,0,0-4.344-1.541,6.894,6.894,0,0,0-3.643.841c-.7.841,1.681.841,2.8.841s2.382.28,2.242.7c-.14.56-2.382.28-2.662.841C276.158,254.848,279.24,254.988,279.24,254.988Z" transform="translate(-269.152 -230.981)"/>
      <path id="Path_464" data-name="Path 464" class="cls-1" d="M284.611,258.006a7.006,7.006,0,1,1-14.011,0,7.006,7.006,0,0,1,14.011,0Z" transform="translate(-270.6 -231.056)"/>
      <path id="Path_465" data-name="Path 465" class="cls-15" d="M279.38,259.289s2.942-.7,3.5,0c.56.841.7,1.541-.42,2.242a10.712,10.712,0,0,1-4.484,1.541,6.894,6.894,0,0,1-3.643-.841c-.7-.841,1.681-.841,2.8-.841s2.382-.14,2.242-.7-2.242-.28-2.662-.841C276.158,259.289,279.38,259.289,279.38,259.289Z" transform="translate(-269.152 -227.856)"/>
      <path id="Path_466" data-name="Path 466" class="cls-27" d="M315.178,270.9a2.519,2.519,0,0,1-.56-2.242c.841-3.783,2.662-13.171,2.522-16.674a3.139,3.139,0,0,0-3.223-3.082h-1.681a4.65,4.65,0,0,1-8.407,0h-1.681a10.73,10.73,0,0,1-.981,10.649,2.448,2.448,0,0,0-.42,2.382c.7,2.242,1.261,4.344,1.821,5.745a2.668,2.668,0,0,1-.7,2.662c-4.9,4.9-8.267,15.412-8.267,27.6a22.7,22.7,0,0,0,.14,3.083,2.732,2.732,0,0,0,2.662,2.522h23.679a2.634,2.634,0,0,0,2.662-2.522c0-.981.14-1.962.14-3.083C322.744,286.17,319.661,276.082,315.178,270.9Z" transform="translate(-261.374 -231.899)"/>
      <path id="Path_467" data-name="Path 467" class="cls-41" d="M312.99,261.848a87.787,87.787,0,0,0,1.4-9.247A17.335,17.335,0,0,1,300.1,264.229c1.4.56,3.5,1.261,5.324,1.962A5.843,5.843,0,0,0,312.99,261.848Z" transform="translate(-258.767 -230.414)"/>
      <path id="Path_468" data-name="Path 468" class="cls-3" d="M300.85,240.344c.56,1.121.28,1.962,4.344,2.942s5.044-.14,6.725,1.681c0,0-1.261-3.223-3.5-3.923s-6.025-.56-7.706-2.942A6.9,6.9,0,0,0,300.85,240.344Z" transform="translate(-258.536 -236.234)"/>
      <g id="Group_264" data-name="Group 264" transform="translate(11.602 17.526)">
        <path id="Path_469" data-name="Path 469" class="cls-15" d="M324.3,252.953a7.053,7.053,0,0,1-.7,2.242l-.841,1.681a14.772,14.772,0,0,1-.981,1.541c-.42.42-.7.981-1.121,1.4A13.31,13.31,0,0,1,318,262.061c-.42.28-.981.7-1.4.981l-1.4.841a37.859,37.859,0,0,1-12.05,3.363,67.468,67.468,0,0,1-11.91-.14c-1.962-.28-3.923-.42-5.745-.7-1.962-.42-3.783-.7-5.745-1.121a1.091,1.091,0,0,1-.841-1.261,1.2,1.2,0,0,1,.981-.841h5.745c1.821,0,3.783-.14,5.6-.14h1.4l1.4-.14,2.8-.28a15.127,15.127,0,0,0,2.662-.42c.841-.14,1.821-.28,2.662-.42a34.589,34.589,0,0,0,9.668-3.643l.981-.56.981-.7a8.8,8.8,0,0,0,1.681-1.541,3.715,3.715,0,0,1,.7-.841,2.931,2.931,0,0,0,.56-.841l.42-.841.14-.42v-.14h0v.14a3.62,3.62,0,0,1,4.063-3.082C323.324,249.03,324.585,250.851,324.3,252.953Z" transform="translate(-278.881 -249.275)"/>
      </g>
    </g>
    <circle id="Ellipse_16" data-name="Ellipse 16" class="cls-42" cx="13.171" cy="13.171" r="13.171" transform="translate(9786.752 -657)"/>
    <path id="Path_470" data-name="Path 470" class="cls-43" d="M5.464,0A5.464,5.464,0,1,1,0,5.464,5.464,5.464,0,0,1,5.464,0Z" transform="translate(9794.458 -649.294)"/>
  </g>
</svg>
